<?xml version="1.0" encoding="UTF-8"?>
<svg id="Layer_1" data-name="Layer 1" xmlns="http://www.w3.org/2000/svg" xmlns:xlink="http://www.w3.org/1999/xlink" viewBox="0 0 16 16">
  <defs>
    <style>
      .cls-1 {
        fill: none;
      }

      .cls-1, .cls-2, .cls-3 {
        stroke-width: 0px;
      }

      .cls-2 {
        fill: #fff;
      }

      .cls-4 {
        clip-path: url(#clippath);
      }

      .cls-3 {
        fill: #ce6128;
      }
    </style>
    <clipPath id="clippath">
      <path class="cls-1" d="m9.54,13.86c-.46.6-1.08.96-1.77,1.24-.7.28-1.41.46-2.16.49-.39.01-.78.07-1.17.11-.26.03-.52.1-.78.1-.27,0-.54-.06-.8-.1-.18-.03-.32-.19-.37-.32-.1-.24-.2-.41-.16-.68,0-.02.05-.23.05-.25.12-.59-.12-1.12-.1-1.71l-.08-.88.2-.94.29-.96.45-1.06.55-1.21.15-.14.06-.18.43-.61.32-.44.19-.34.42-.66c.37-.53.73-1.06,1.1-1.59.22-.3.47-.58.7-.87.32-.42.73-.73,1.13-1.06.11-.09.2-.21.31-.31.38-.36.81-.65,1.33-.76.07-.02.16.01.23.03.13.04.26.1.42.16.04-.18.09-.34.12-.51.02-.11.08-.18.19-.17.11,0,.23.03.33.08.12.06.16.16.12.3-.05.17-.09.35-.12.5.14.04.27.07.4.1.08.02.16.05.24.04.48-.01.78.28,1.02.63.34.5.37,1.08.41,1.66.01.25-.17,1.39-.28,2.57-.48,5.17-3.34,7.72-3.34,7.72Z"/>
    </clipPath>
  </defs>
  <g class="cls-4">
    <g>
      <path class="cls-3" d="m10.42.97c.04-.18.09-.34.12-.51.02-.11.08-.18.19-.17.11,0,.23.03.33.08.12.06.16.16.12.3-.05.17-.09.35-.12.5.14.04.27.07.4.1.08.02.16.05.24.04.48-.01.78.28,1.02.63.34.5.37,1.08.41,1.66.05.92-.14,1.81-.26,2.72.07.03.14.05.2.09.14.08.27.17.41.25.06.04.12.09.19.13.36.2.64.47.89.79.27.35.59.67,1.01.87.17.08.33.22.45.37.31.37.62.74.9,1.13.13.18.2.41.29.63.06.17.03.33-.09.47-.1.11-.22.22-.35.31-.24.16-.5.32-.75.46-.24.13-.49.23-.74.35-.21.1-.42.21-.63.32-.05.02-.1.04-.15.06-.06.02-.13.04-.18.07-.13.07-.25.16-.38.23-.31.17-.62.33-.94.48-.16.07-.33.11-.5.15-.27.07-.55.12-.82.18-.1.02-.2.04-.3.04-.37.02-.75.03-1.13.04-.19,0-.38.01-.57.04-.06,0-.13.05-.17.1-.46.6-1.08.96-1.77,1.24-.7.28-1.41.46-2.16.49-.39.01-.78.07-1.17.11-.26.03-.52.1-.78.1-.27,0-.54-.06-.8-.1-.18-.03-.25-.19-.31-.32-.1-.24-.21-.48-.17-.76,0-.02,0-.04,0-.06.21-.58-.04-1.15-.05-1.73,0-.1-.07-.15-.17-.2-.26-.12-.52-.25-.77-.39-.37-.21-.76-.39-1.08-.69-.22-.21-.36-.45-.43-.74-.04-.15-.1-.28-.15-.43-.03-.07-.06-.14-.07-.21,0-.11-.06-.17-.16-.21-.35-.13-.72-.15-1.09-.11-.17.02-.35-.08-.36-.24,0-.18.02-.36.06-.53,0-.05.12-.12.16-.1.24.07.47,0,.7-.05.16-.04.32-.12.48-.19.28-.11.32-.26.31-.59,0-.1,0-.21.04-.29.17-.31.39-.57.72-.72.53-.25,1.07-.5,1.6-.74.19-.09.39-.16.59-.23.52-.17,1.04-.33,1.57-.48.24-.07.49-.12.73-.19.09-.03.18-.1.23-.17.37-.53.73-1.06,1.1-1.59.22-.3.47-.58.7-.87.32-.42.73-.73,1.13-1.06.11-.09.2-.21.31-.31.38-.36.81-.65,1.33-.76.07-.02.16.01.23.03.13.04.26.1.42.16Zm-.16,10.75l-.48.63s.03.02.05.03c.15-.22.29-.43.44-.65.11-.15.22-.3.32-.45-.01,0-.03-.02-.04-.03-.1.16-.2.31-.29.47Zm5.39-1.66s.03.09.06.1c.15.03.3.04.49.07-.1-.05-.17-.08-.22-.12-.1-.09-.21-.11-.33-.04-.17-.04-.35-.08-.52-.11-.03,0-.07.04-.1.06,0,.01.01.03.02.04.12.02.23.04.35.07.1.02.19.02.26-.06Zm-4.75,1.27c-.14.11-.18.35-.43.33,0,0-.01.01-.02.02-.1.18-.25.33-.24.56-.09.11-.17.24-.27.34-.23.23-.47.46-.72.67-.11.1-.17.19-.12.36.12-.19.36-.26.4-.49.04-.01.11-.02.14-.06.19-.22.38-.44.56-.67.03-.03,0-.1,0-.15.14.06.13-.14.24-.14-.01-.06-.02-.12-.03-.16.02-.06.03-.1.05-.16.05.04.1.07.19.13.08-.21.16-.39.23-.57.18-.15.28-.35.34-.57-.11.19-.22.38-.33.58Zm3.61-2.92c.1.14.23.21.42.23-.06-.04-.09-.07-.12-.09-.1-.05-.2-.09-.29-.13,0-.03,0-.07,0-.09-.16-.17-.31-.36-.5-.49-.21-.13-.46-.2-.69-.29.09.11.18.24.31.29.2.08.32.23.47.36.12.1.25.22.42.21Zm-10.03,4.68c.01-.06.02-.12.05-.17.04-.08.08-.15,0-.23-.05-.05-.08-.1-.13-.15,0,0,0,.01,0,.02-.18-.14-.36-.28-.53-.42-.14.07-.19.17-.14.3l-.12.04.14.39c.17.25.39.45.73.25.07.15.14.29.21.44.01,0,.02-.01.03-.02-.02-.03-.03-.05-.05-.09.04.01.07.02.1.03,0-.04,0-.06-.01-.09.07.07.13.14.2.17.07.03.17.01.26.01-.03-.02-.05-.04-.03-.03.05-.06.09-.12.13-.17,0,0,.02-.01.03-.02.15-.06.21-.19.13-.34-.06-.12-.13-.23-.19-.34-.02-.03-.06-.06-.08-.06-.18.03-.37,0-.51.15-.08.09-.13.2-.2.3Zm.26-3.85s-.07,0-.07.02c-.04.09-.07.18-.1.28,0,.03,0,.06,0,.09.01,0,.03,0,.04.01.05-.09.11-.18.17-.29.22.06.46.12.7.18,0,.02,0,.03-.01.05-.19-.05-.39-.1-.58-.14-.03,0-.1-.05-.07.04-.05.05-.09.09-.14.14l.03.03s.06-.06.09-.08c0,0,0,0,.01.01-.02.05-.04.1-.08.2.1-.07.16-.12.25-.19-.02.05-.02.07-.03.09q.1-.07,0-.15c.14.06.28.12.42.18-.09-.03-.19-.06-.28-.09-.04.05-.08.09-.11.13-.01.02-.01.06,0,.08,0,.02.04.03.06.03.16,0,.32,0,.47-.01,0,0-.02-.03-.04-.06.08.06.13,0,.19-.04.06-.05.13-.08.2-.13-.05,0-.08-.01-.12-.02.01,0,.02-.02.04-.02l-.05-.14c.06-.03.13-.07.21-.11l-.08-.21c.07-.05.13-.09.18-.13-.03-.07-.06-.13-.08-.18.05-.01.1-.02.2-.04-.13-.04-.21-.06-.3-.09-.18-.05-.35-.1-.53-.13-.13-.02-.13.07-.11.13-.13.04-.27.07-.41.11.06.06.09.1.12.14-.11.02-.24,0-.24.16.05-.02.1-.04.11-.05-.02.06-.04.13-.06.2,0,0,0,0,0,0Zm1.53-2.04c-.17-.01-.33-.02-.45-.03.25.14.54.31.7.4-.18-.08-.51-.21-.85-.35,0-.02,0-.06,0-.13-.12.17-.22.3-.31.44-.03.06-.05.12.06.16.2.07.4.15.6.23,0,.01,0,.02-.01.03-.24-.09-.49-.17-.73-.25-.02.15-.05.25-.06.36,0,.02.04.04.06.06.02,0,.04,0,.05-.01-.03.02-.06.04-.08.06.01,0,.02.01.03.02h.07s-.02.02-.04.03c.03.06.05.12.09.18,0,0,.06-.02.07-.03.12.05.24.13.36.13.11,0,.2.18.33.06.06.07.35.17.45.12.04-.02.06-.07.08-.11.03-.04.05-.11.08-.11.24,0,.33-.2.49-.32.04-.03.06-.11.09-.17,0-.01,0-.05-.02-.08-.04-.12-.06-.27-.15-.34-.12-.1-.23-.23-.41-.24-.08,0-.16-.08-.24-.12-.15-.14-.35-.11-.53-.13-.07,0-.15,0-.22,0,0,0,0,.01,0,.02.16.04.33.07.49.11Zm1.57-2.73c-.11.03-.22.05-.33.08,0,.01,0,.02,0,.03.06.02.11.04.19.06-.15,0-.27.01-.39.02,0,.02,0,.03,0,.05.11,0,.21.02.32.03,0,0,0,.02,0,.03l-.39.04c.11.05.22.05.33.07.11.02.21.05.31.08,0,.01,0,.02,0,.04-.22-.02-.44-.03-.67-.05,0,.01,0,.02,0,.03.09.03.18.05.31.09-.16.01-.28.02-.41.04,0,.01,0,.03,0,.04.06.01.12.03.19.04,0,0,0,.02,0,.03-.05,0-.1,0-.19-.01.1.06.16.1.23.14-.04.03-.06.05-.12.11.38-.02.64.2.93.3.02-.03.05-.06.07-.1.02.03.03.05.06.1.04-.05.08-.1.13-.15,0,.06-.01.11-.02.17,0,.04,0,.1.02.11.14.09.28.19.43.24.22.09.46.14.69.21.1.03.2.07.3.11.19.09.38.18.57.27.07.03.11.02.17-.04.07-.07.17-.11.25-.16.05-.11.1-.21.15-.31-.02-.05-.04-.11-.06-.17-.02-.07-.03-.14-.04-.23,0,0-.03,0-.07-.01.02-.03.04-.06.06-.09-.22,0-.61-.17-.65-.26.22.05.45.1.67.15,0-.01,0-.02,0-.04.05,0,.09,0,.17,0-.13-.05-.06-.09-.02-.13.1-.12.14-.26.05-.39-.08-.13-.18-.25-.29-.35-.09-.08-.21-.12-.32-.18.1.01.2.03.28.07.12.07.18,0,.2-.09.03-.14.07-.29-.05-.41-.13-.13-.28-.23-.47-.25-.04,0-.07-.03-.11-.05,0,0,0-.01,0-.02-.12,0-.24,0-.36,0,0,0,0-.03,0-.03-.21,0-.43.02-.67.03.05-.1.09-.18.14-.27,0,.14.1.21.23.19.24-.03.48-.06.72.01.04.01.1-.02.13-.03-.05-.14-.09-.25-.13-.36-.05-.13-.13-.19-.29-.18-.19,0-.32.09-.45.18-.03-.03-.05-.05-.07-.07-.05-.04-.1-.06-.14-.1-.12-.16-.49-.16-.6,0-.14.2-.27.4-.39.6.04.05.07.07.09.1.16.2.27.22.48.07.06-.04.14-.08.2-.12-.07.09-.17.15-.25.23-.11.11-.23.23-.29.37-.06.14-.07.31.08.45-.05-.01-.09-.02-.1-.05-.16-.22-.4-.22-.63-.25-.02,0-.04-.02-.07-.03.1,0,.2-.02.29-.03,0-.02,0-.03,0-.07.05.04.07.06.09.07.02-.11.03-.21.05-.35-.03-.01-.09-.04-.16-.06,0,0,0-.01,0-.02.08,0,.15.02.23.02-.09-.06-.08-.23-.27-.18-.11.03-.24-.04-.36.03-.16.09-.24.23-.3.39-.01.03,0,.07,0,.11.1,0,.19,0,.3-.01-.03.03-.04.04-.06.05.02.01.05.03.07.04Zm-1.33,8.22s.08-.02.13-.04c0,0,0-.02,0-.03-.08,0-.15-.01-.23-.02,0-.01,0-.02,0-.03.06,0,.11,0,.21,0-.16-.05-.28-.08-.4-.12,0-.01,0-.03,0-.04.09.01.17.02.29.04-.17-.11-.31-.2-.45-.29.2.07.41.13.56.26.18.14.37.13.56.18,0-.02,0-.04.01-.06-.06,0-.12,0-.18,0,0,0,.02-.01.03-.02-.1-.11-.21-.22-.31-.32.08.03.15.08.2.13.07.07.15.05.18,0,.06-.12.16-.09.25-.1.04,0,.09-.02.13-.03v-.04c-.11,0-.2,0-.3,0,.14-.1.28-.19.46-.15.05.01.12-.03.18-.05,0-.02,0-.04-.01-.05-.12.01-.25.02-.41.04.1-.09.19-.16.29-.25-.06-.06-.13-.13-.21-.2-.08-.07-.16-.13-.23-.2,0,0,.02-.02.02-.03.13.1.26.2.37.31.09.09.17.09.27.03,0-.14-.06-.24-.16-.33-.09-.07-.17-.14-.25-.22-.03-.03-.03-.07-.04-.11.22.2.78.17.96.06-.06,0-.12,0-.18,0,0,0,0-.02,0-.03.05-.02.11-.03.16-.05,0,0,0-.01,0-.02-.04,0-.09,0-.16,0,.1-.13.18-.24.26-.34-.03,0-.07-.01-.11-.02,0,0,0-.02,0-.03.06,0,.13-.01.19-.02,0-.01,0-.02,0-.03-.05,0-.1,0-.16-.01.04-.03.07-.05.12-.08-.07,0-.11-.02-.15-.02.02-.05.05-.1.04-.12-.06-.14-.1-.3-.25-.38-.04-.02-.08-.06-.12-.09.09.05.19.08.27.14.17.13.5.17.68.05.02,0,.02-.03.04-.05-.07,0-.14,0-.2,0,0,0,0-.02,0-.02l.24-.07s0-.02,0-.04c-.05,0-.09-.01-.14-.02,0,0,0-.02,0-.02.05-.01.1-.03.14-.04,0-.01.01-.03.02-.04-.05-.03-.1-.06-.18-.1.1-.02.19-.03.28-.05,0,0,0-.02,0-.03-.06-.02-.12-.04-.18-.06l.33-.12s0-.03-.01-.04c-.07,0-.14.01-.21.02,0-.02,0-.03,0-.05.1-.01.2-.02.26-.03.02-.05.03-.07.03-.1,0-.03.02-.06.01-.08-.09-.14-.16-.32-.28-.4-.33-.21-.68-.4-1.08-.46-.49-.07-.94,0-1.23.47-.04.07-.06.17-.09.28.15-.06.21,0,.27.07.07.08.15.15.23.21.27.2.54.39.82.59-.22-.13-.44-.24-.64-.38-.31-.23-.65-.38-1.04-.43-.14-.02-.22.02-.25.17,0,.03-.01.08-.04.1-.15.11-.17.27-.16.44.01.13.03.26.16.34.24.14.47.29.7.44.08.05.15.1.23.15,0,.01-.01.02-.02.04-.08-.04-.16-.08-.24-.13-.17-.11-.35-.2-.51-.33-.2-.16-.42-.1-.59-.01-.21.12-.42.3-.42.6,0,.11-.03.22-.03.33,0,.04,0,.09.02.12.16.24.24.53.51.7.05.03.1.07.15.11-.06,0-.1-.05-.15-.06-.12-.04-.24-.09-.35-.09-.05,0-.11.11-.16.17-.02.02-.03.04-.04.06-.15.19-.15.25-.02.45.1.14.19.3.35.38.04.02.05.07.08.1.05.06.09.14.15.18.03.02.1-.03.15-.05.13-.05.26-.11.42-.18-.07-.03-.14-.06-.2-.08,0,0,0-.02,0-.02.06,0,.13,0,.25-.02-.24-.26-.45-.49-.67-.72,0,0,.01-.01.02-.02.19.19.39.37.59.57.03,0,.08,0,.14,0-.03.02-.07.04-.08.04.01.06.03.1.04.15.13.05.1-.11.18-.16-.06-.02-.1-.03-.14-.05Zm1.83-9.48s-.02.08-.03.11c.01,0,.02.01.04.02.04-.05.07-.11.12-.16.05-.05.1-.09.16-.13.07-.04.14-.07.21-.12.15-.12.3-.2.5-.19.11,0,.25.02.33-.12.01-.02.08,0,.13-.01.07-.09.14-.19.22-.29,0,0,.02,0,.02.01-.06.13-.13.25-.19.38,0,0,.01,0,.02.01.06-.04.12-.08.22-.15-.03.09-.05.15-.07.2.12-.09.24-.18.36-.27.03,0,.06.02.11.03-.04.1-.11.2-.11.3,0,.09.06.19.1.3.06-.05.09-.08.11-.09,0,.08,0,.17-.01.25.02,0,.03,0,.05,0,.01-.05.02-.1.04-.18l.05.14c.07-.14.12-.25.17-.35,0,0,.01,0,.02,0-.05.22-.1.44-.15.66,0,0,.01,0,.02,0,.06-.11.11-.22.17-.33,0,0,.02,0,.03.01l-.16.4s.03.01.04.02c.1-.27.21-.54.31-.81.03.33-.22.62-.2.94.02,0,.03,0,.05,0l.05-.13c-.08.46.1.86.24,1.27.02-.02.03-.04.08-.09-.05.24-.1.45-.14.65-.03.16-.05.31-.09.47-.04.17-.04.38-.14.5-.29.35-.44.73-.44,1.17,0,.06.02.13.03.22.07.11.11-.03.2-.07-.2.38-.39.74-.58,1.1-.02,0-.04-.01-.05-.02.13-.18.22-.36.15-.59-.02.03-.05.06-.07.09-.07.13-.13.26-.21.38-.25.36-.55.69-.69,1.12-.03.09-.09.17-.14.25-.15.25-.3.5-.45.75-.07.13-.12.26-.21.38-.26.37-.53.74-.8,1.11-.03.04-.08.08-.12.11-.29.17-.57.33-.86.49-.1.06-.22.11-.31.19-.21.21-.46.33-.75.4-.25.06-.49.16-.74.25-.07.02-.14.05-.21.08-.13.05-.27.1-.39.17-.25.15-.46.36-.76.42-.23.05-.34-.03-.33-.27,0-.15.03-.3.03-.45,0-.04-.04-.08-.05-.13h-.05c.05-.05.1-.1.16-.16.03-.27.07-.57.1-.87-.02,0-.04,0-.05,0-.02.1-.05.21-.07.31.06-.57.13-1.13.21-1.69.02-.13.08-.26.13-.39.05-.14.1-.29.16-.42.1-.23.21-.46.32-.68.1-.19.2-.38.3-.57.14-.27.27-.54.4-.81.05-.11.1-.21.15-.32.08-.18.13-.37.22-.54.13-.25.29-.48.43-.72.17-.3.32-.62.51-.92.14-.23.32-.44.48-.66.15-.21.32-.41.46-.63.1-.16.18-.32.32-.45.13-.12.23-.28.35-.42.2-.25.38-.53.62-.74.31-.27.61-.54.87-.85.01-.02.04-.02.06-.03,0,0,.01.01.02.02-.03.04-.05.09-.09.14.06-.03.1-.05.14-.08.02.01.03.02.05.03-.05.08-.1.15-.15.23.01,0,.03.02.04.02.35-.33.52-.81.98-1.08-.26-.14-.48-.11-.69-.02-.2.09-.39.19-.58.29,0,0,0-.02-.01-.02l.3-.22c-.1.03-.18.06-.25.13-.27.24-.54.48-.81.72-.07.07-.15.12-.23.19-.01-.01-.02-.02-.03-.03,0-.02.01-.04.03-.05.34-.3.68-.6,1.02-.89.08-.07.18-.11.28-.14.2-.05.4-.07.6-.11,0-.02,0-.03,0-.05-.06,0-.11-.01-.17,0-.42.03-.76.24-1.08.5-.29.24-.57.48-.85.73-.08.07-.16.14-.24.21.13.12.02.2-.03.31-.05-.06-.09-.11-.14-.17-.06.06-.12.11-.16.17-.63.74-1.2,1.53-1.76,2.31-.39.54-.74,1.11-1.13,1.66-.48.69-.86,1.44-1.19,2.2-.24.55-.41,1.13-.61,1.69-.19.53-.28,1.07-.2,1.63.05.37.09.74.14,1.11.05.34.13.67,0,1.01-.13.38.07.66.34.9.19.17.55.14.83.01.28-.13.57-.22.86-.33.14-.05.29-.08.43-.14.42-.18.83-.36,1.25-.54.2-.09.41-.15.6-.26.3-.16.57-.38.88-.53.88-.42,1.51-1.09,2.02-1.9.04-.07.1-.13.15-.19,0,0,.02.01.02.02-.06.1-.13.19-.19.29.01,0,.03.02.04.03.17-.22.36-.43.5-.66.16-.26.29-.55.43-.83.11-.21.23-.42.32-.63.13-.3.25-.6.46-.86.07-.09.12-.2.17-.3.26-.53.39-1.11.55-1.68.01-.04,0-.09.01-.13.03-.11.05-.21.09-.31.01-.04.05-.08.05-.12.01-.15,0-.31.02-.46.04-.32.06-.65.14-.97.04-.18.03-.35.03-.53,0-.24-.02-.48-.02-.72,0-.29.02-.58.03-.87.01-.3-.05-.59-.16-.87-.1-.26-.46-.45-.73-.32.13.06.27.09.38.18.1.09.16.23.23.34-.01,0-.02.01-.04.02-.29-.41-.45-.5-.67-.41.12.07.26.15.39.22-.19-.05-.35-.18-.58-.1.32.17.53.41.58.75.03.16.03.33.02.49,0,.25-.03.51-.05.76-.02-.3-.01-.59,0-.89.02-.39-.11-.72-.43-.96-.04-.03-.1-.04-.15-.06,0,.01-.02.03-.03.04.02.04.05.08.07.13.04.08.07.16.09.24,0,.03-.03.08-.04.12-.03-.02-.07-.03-.1-.06-.05-.05-.09-.11-.14-.16-.03-.03-.09-.07-.11-.06-.11.05-.16-.01-.24-.08-.03-.03-.1-.02-.14,0-.05.02-.09.07-.14.09-.04.02-.08.03-.13.04.02-.04.04-.07.06-.11,0,0,0-.02,0-.04l-.59.21c.08-.19.43-.14.35-.42-.11,0-.22,0-.35-.01-.2.27-.36.61-.67.81-.02-.01-.03-.02-.05-.03.03-.1.06-.19.09-.27-.09.07-.2.14-.3.23-.09.08-.16.18-.24.27-.03,0-.07,0-.08,0-.12.11-.23.22-.34.33,0,.02.02.03.03.05.04-.01.08-.03.12-.04Zm-1.82,3.21s0,.02,0,.03c-.06,0-.11,0-.17,0-.13,0-.29-.03-.38.04-.11.08,0,.21.04.31,0,0-.01.02,0,.03.03.07.06.13.17.15.21.04.42.11.63.19.13.05.26.13.39.2.14.07.51-.09.59-.17.06-.06.12-.12.19-.18-.15-.09-.31-.18-.46-.26,0-.01.01-.02.02-.03.07.04.15.08.22.13.08.04.16.09.24.13.01-.14-.03-.24-.18-.26.2-.17-.07-.25-.06-.38.01-.22-.24-.15-.34-.29.12.03.22.06.32.09,0-.01,0-.02.01-.03-.04-.04-.09-.07-.15-.12.05,0,.07,0,.09,0-.1-.09-.21-.19-.28-.25-.1-.03-.19-.03-.24-.08-.08-.09-.24-.12-.33-.02-.01.01-.04,0-.07.01-.1.16-.1.17.08.28-.09-.01-.18-.02-.27-.04l-.03.03c.07.08.15.16.23.23-.09-.01-.17-.03-.25-.03-.1,0-.21,0-.29.05-.09.06-.15.16-.22.24.17,0,.35.01.52.02Zm3.73.38c-.06-.03-.11-.06-.16-.09-.37-.16-.74-.32-1.11-.47-.22-.09-.46-.16-.69-.22-.1-.03-.22-.01-.33,0-.18.03-.21.25-.08.41.08.1.16.2.21.32.08.2.2.35.42.4.1.02.2.06.31.09.38.12.72.32,1.05.54.02.01.07.03.07.02.08-.13.2-.07.3-.08.04,0,.07-.03.11-.05v-.04c-.1,0-.18,0-.27,0,0-.01,0-.02,0-.03.05-.01.1-.03.16-.04,0,0,0-.02,0-.02-.06,0-.13,0-.23-.02.06-.04.09-.06.13-.08-.08-.06-.15-.12-.2-.16.14.02.31.05.47.07,0-.03.01-.05.02-.08-.1-.08-.23,0-.35-.06.1-.02.21-.03.31-.05,0-.02,0-.04,0-.07-.12,0-.24.02-.36.02,0-.01,0-.02,0-.03l.3-.06s-.07-.06-.09-.05c-.15.05-.26-.02-.38-.1-.13-.09-.26-.17-.41-.23-.23-.09-.48-.17-.71-.25-.05-.02-.09-.04-.14-.06l.02-.04c.45.17.93.24,1.33.55.11.08.22.1.34.02-.08,0-.15,0-.23,0,0,0,0-.02,0-.03.06-.01.12-.02.2-.04Zm-.38,1.47s.02-.04.03-.06c-.17-.14-.33-.3-.52-.42-.33-.21-.67-.41-1.02-.59-.09-.05-.22-.07-.32-.05-.14.03-.27.11-.4.18-.3.15-.35.26-.26.56.04.14.12.18.26.15.1-.03.21-.05.31-.07,0,.01,0,.02.01.03-.02.02-.04.03-.08.08.3-.09.52.04.73.14.23.1.44.23.66.35.03.02.08.03.1.06.13.17.28.21.46.11-.07,0-.15,0-.2-.02-.3-.17-.6-.34-.9-.52-.04-.02-.08-.04-.11-.06.01-.02.02-.03.03-.05.3.17.6.33.89.5.08.04.19.09.19-.02,0-.17.07-.21.2-.23-.07-.09-.22.09-.24-.09.05.01.11.02.16.03Zm-5.48,1.82c-.07,0-.14-.02-.18,0-.21.15-.31.35-.3.61,0,.07.01.17.1.14,0,.03-.02.07,0,.11.04.16.14.26.29.33.08.03.15.07.23.1-.02.01-.03.02-.05.04,0,.01.01.03.02.04.05-.01.1-.02.14-.04.21-.12.3-.12.46.04.08.08.14.06.2.03-.02-.3-.24-.36-.45-.43-.09-.03-.19-.05-.28-.07-.03,0-.05-.02-.08-.03,0-.02.01-.04.02-.05.24.06.47.13.72.19-.04-.34-.05-.69.33-.9-.23-.27-.78-.31-1.06-.16.02-.04.03-.06.05-.09,0,0-.02-.01-.03-.02-.04.05-.08.11-.12.16Zm-.49,1.36c-.11-.04-.18,0-.19.1,0,.22.2.52.39.64.17.1.33.24.5.36.15.11.38.03.43-.15.03-.09.06-.18.09-.26.04-.09,0-.3-.06-.33-.26-.13-.52-.27-.77-.4-.13-.07-.26-.13-.42-.07,0,.04.02.08.02.11Zm10.94,0s0-.1-.02-.11c-.08-.05-.17-.1-.26-.14-.02,0-.07,0-.08.03-.09.09-.42.14-.54.1-.07-.02-.15-.01-.24-.02l.04.12c-.11-.08-.24-.04-.35-.07-.16-.04-.34.03-.51.06,0,0,0,.05,0,.04.7.22,1.39-.02,2.08,0-.04,0-.08-.01-.1-.01Zm-10.44,2.41c-.09-.11-.17-.21-.25-.32,0,0,.01-.01.02-.02.02,0,.05.02.07.03,0-.03,0-.04,0-.1.08.16.09.31.27.36,0-.07.03-.13.02-.19-.02-.1-.02-.23-.09-.29-.05-.04-.19,0-.27.03-.07.03-.13.11-.17.18-.09.14-.08.35.04.41.13.06.25.03.36-.09Zm-.71.42s.09-.07.12-.07c.13.03.07-.12.14-.14-.05-.08-.09-.2-.16-.23-.12-.05-.27-.04-.43-.06-.01.12-.02.23-.03.34.06,0,.09,0,.13,0-.06.17.09.13.15.19,0-.05,0-.09.02-.17.03.07.05.1.06.14ZM12.85,3.11c-.02.19-.04.38-.06.56-.01,0-.02,0-.03,0-.03-.07-.06-.14-.1-.21-.02.12-.04.25-.06.42-.05-.06-.06-.08-.08-.09-.02,0-.03.01-.05.02.04.18.09.37.13.55,0,0,.02,0,.03,0,.05-.2.1-.39.15-.59.04,0,.09.02.17.04-.01-.11-.02-.2-.04-.32.1-.1-.05-.23-.05-.37ZM3.61,13.3c.04.06.07.09.09.11-.06.01-.11.02-.19.04.06.06.11.1.14.13l-.16.06c.16.16.23.16.36.01.09-.1.18-.21.29-.35-.18-.04-.32-.06-.48-.09.02.03.04.06.06.1-.04,0-.07,0-.12,0Zm7.95-2.21c.07,0,.13,0,.19,0,.11,0,.23-.02.32.02.21.09.41.03.62,0-.31-.06-.63-.1-.94-.14-.1-.02-.16,0-.2.11Zm-.21.34c.34,0,.65-.02.98-.03-.13-.15-.89-.14-.98.03ZM-.42,9.58s0-.03,0-.05c-.38,0-.76,0-1.14,0,0,.02,0,.04,0,.05.33.02.66.05.99.07,0-.01-.01-.02-.02-.03.06-.01.11-.03.17-.04Zm15.41,1.56c.29.14.52-.09.79-.05-.09-.12-.26-.13-.38-.08-.12.05-.25.08-.41.13Zm-13.52-1.35c.13.12.77.14,1.24.03-.42-.01-.83-.02-1.24-.03Zm14.18,1.58c-.05-.07-.08-.13-.1-.13-.2.01-.4.04-.6.06v.07c.21.03.43,0,.69,0Zm-1.37.31s0,.03,0,.05c.33-.05.69.07.96-.18-.31.04-.64.09-.97.14ZM10.72,1.66s.02,0,.03,0c.03-.18.04-.36.09-.53.04-.17.11-.34.17-.51-.12,0-.17.04-.18.16-.03.29-.07.59-.11.88Zm3.59,8.73s0,.05-.01.08c.36.04.72.07,1.08.11,0-.02,0-.03,0-.05-.36-.04-.72-.09-1.07-.13Zm-15.86-1.05s0,.04,0,.06c.12,0,.25,0,.37-.01.03,0,.07.01.1.02-.02.11.07.06.09.05.05-.02.08-.06.14-.11-.13,0-.26,0-.38,0,.08-.04.16-.05.24-.05.08,0,.15-.02.23-.02,0-.02,0-.03,0-.05-.26.04-.51.09-.77.13ZM10.63.4c.15.12.29.2.47.13-.1-.2-.26-.24-.47-.13Zm3.89,7.69s.02-.03.02-.05c-.22-.16-.43-.31-.65-.47l-.03.04c.17.23.44.31.66.47Zm-4.65,3.96c-.19.22-.38.44-.57.66.01.01.03.02.04.03.23-.19.39-.44.53-.69Zm-.78-10.82c.3-.15.6-.26.94-.14-.23-.18-.59-.12-.94.14Zm5.74,8.42s0-.04.01-.05c-.26-.05-.51-.09-.77-.14,0,.02,0,.04-.01.06.26.04.51.09.77.13Zm-8.19,4.89s0-.02-.01-.03c-.28.12-.57.24-.85.36l.03.06c.28-.13.56-.26.84-.4Zm7.82-6.43c.12.17.36.18.44.4,0,.02.09,0,.13,0,0-.02,0-.04.01-.06-.19-.11-.39-.23-.58-.34Zm-11.79,1.8c-.11,0-.22.01-.33.02-.03,0-.05.03-.08.05.03.02.06.05.09.05.06,0,.12,0,.17,0,.1.01.16,0,.14-.13Zm5.98,3.83c.27-.05.36-.14.33-.3-.12.11-.23.2-.33.3Zm-.32.5c.07-.05.13-.08.2-.13-.03-.05-.05-.09-.08-.13-.08.04-.15.07-.22.11.04.05.06.09.1.15Zm5.03-1.7s0,.04,0,.06c.29-.08.58-.15.86-.23v-.02c-.29.06-.58.13-.87.19ZM-.33,8.93s-.01-.03-.02-.04c-.36.1-.71.2-1.07.3,0,.01,0,.02,0,.03.36-.1.72-.2,1.08-.29ZM10.53,1.39s-.03-.01-.04-.02c-.12.14-.19.31-.21.49.01,0,.03.01.04.02.07-.16.14-.33.21-.49Zm4.61,7.31s-.02.03-.03.05c.19.13.37.25.56.38.01-.02.02-.03.03-.05-.19-.12-.37-.25-.56-.37Zm-16.38.96s0,.03-.01.05c.23.03.45.05.68.08,0-.02,0-.04,0-.06-.22-.02-.45-.04-.67-.06Zm15.07-2.35l-.04.05c.15.12.29.23.44.35.01-.02.03-.04.04-.05l-.45-.34Zm-6.07,7.05c-.07.06-.13.11-.19.16.11.09.2.1.3-.02-.03-.04-.06-.09-.11-.15Zm.95-1.2s-.02-.02-.02-.02c-.22.17-.43.34-.65.51.01.01.02.03.03.04.21-.17.43-.35.64-.52Zm.18.65s-.02-.03-.03-.04c-.1.06-.21.11-.34.18.05.04.1.09.11.08.09-.07.17-.14.26-.22Zm6.92-2.64s-.08.02-.14.04c.06.15.09.15.31.05-.04-.02-.08-.05-.17-.09Zm-13.51-2.5c.31.08.49.06.51-.05-.16.02-.31.03-.51.05Zm5.32,6.11c.13.08.31,0,.35-.16-.12.06-.23.1-.35.16Zm6.85-3.73s0-.02,0-.04c-.11-.01-.21-.03-.29-.04-.03.06-.05.1-.08.16.13-.03.25-.06.36-.08Zm-6.39,3.33c-.08-.15-.12-.16-.24-.03.04.04.08.08.12.13.05-.04.08-.07.12-.1Zm7.35-4.44s.01-.04.02-.07c-.16-.03-.31-.06-.47-.08,0,.02,0,.04-.01.06.15.03.31.06.46.09Zm-2.62-5.44c0-.12,0-.23,0-.36-.13.14-.12.29,0,.36ZM-.2,9.27v-.05c-.16,0-.31.02-.46.02,0,.02,0,.04,0,.06.15-.01.3-.03.45-.04Zm13.71,1.79c.3.09.34.09.45-.02-.16,0-.31.01-.45.02Zm-1.8-.25s0,.05,0,.07c.11,0,.23-.02.34-.03,0-.02,0-.04,0-.06-.11,0-.23.01-.34.02Zm-3.45,3.46c-.07-.17-.09-.17-.2-.06.05.07.08.17.2.06Zm6.67-4.22s.03-.04.05-.06c-.03-.03-.06-.08-.1-.09-.04,0-.09.02-.14.03.06.04.13.08.19.12Zm-13.15-1.78s0,.03.01.05c.15-.03.29-.07.44-.1,0-.01,0-.03,0-.04-.15.03-.29.06-.44.1Zm.5-1.61s0,0,0-.01l-.66.24s0,0,0,.01l.66-.24Zm9.95,6.14s0-.05,0-.07c-.12.01-.24.03-.37.04,0,.02,0,.03,0,.05l.37-.02Zm-5.18,2.01c.11-.02.21-.05.31-.07-.05-.1-.18-.07-.31.07ZM1.66,8.2s0-.04,0-.06c-.11,0-.21.01-.32.02,0,.02,0,.04,0,.06.11,0,.21-.02.32-.02Z"/>
      <path class="cls-2" d="m8.63,2.87c.08-.09.15-.19.24-.27.1-.09.21-.16.3-.23-.03.08-.06.17-.09.27.02.01.03.02.05.03.31-.2.47-.54.67-.81.12,0,.23,0,.35.01.08.28-.27.23-.35.42l.59-.21s.01.03,0,.04c-.02.04-.04.07-.06.11.04-.01.09-.02.13-.04.05-.03.09-.07.14-.09.04-.01.11-.02.14,0,.07.06.13.13.24.08.02-.01.08.03.11.06.05.05.09.11.14.16.03.03.07.04.1.06.01-.04.05-.08.04-.12-.02-.08-.06-.16-.09-.24-.02-.04-.05-.08-.07-.13,0-.01.02-.03.03-.04.05.02.11.03.15.06.32.24.45.57.43.96-.01.29-.02.59,0,.89.02-.25.04-.51.05-.76,0-.16,0-.33-.02-.49-.05-.34-.26-.58-.58-.75.24-.08.4.05.58.1-.13-.08-.26-.15-.39-.22.22-.09.38,0,.67.41.01,0,.02-.01.04-.02-.07-.12-.13-.26-.23-.34-.1-.09-.25-.12-.38-.18.27-.13.63.06.73.32.11.28.17.57.16.87-.01.29-.03.58-.03.87,0,.24.02.48.02.72,0,.18.02.35-.03.53-.07.32-.1.64-.14.97-.02.15-.01.31-.02.46,0,.04-.04.08-.05.12-.03.1-.06.21-.09.31,0,.04,0,.09-.01.13-.15.57-.29,1.14-.55,1.68-.05.1-.1.21-.17.3-.21.26-.34.56-.46.86-.09.22-.21.42-.32.63-.14.28-.27.57-.43.83-.15.24-.33.44-.5.66-.01,0-.03-.02-.04-.03.06-.1.13-.19.19-.29,0,0-.02-.01-.02-.02-.05.06-.11.13-.15.19-.51.8-1.14,1.48-2.02,1.9-.31.15-.58.36-.88.53-.19.1-.4.17-.6.26-.42.18-.83.36-1.25.54-.14.06-.29.09-.43.14-.29.1-.58.2-.86.33-.28.13-.64.16-.83-.01-.27-.24-.47-.52-.34-.9.12-.34.04-.68,0-1.01-.05-.37-.09-.74-.14-1.11-.08-.56.01-1.1.2-1.63.21-.56.37-1.14.61-1.69.34-.77.71-1.51,1.19-2.2.38-.55.74-1.12,1.13-1.66.57-.79,1.14-1.57,1.76-2.31.05-.06.1-.11.16-.17.05.06.09.11.14.17.04-.11.15-.19.03-.31.08-.07.16-.15.24-.21.28-.24.56-.49.85-.73.31-.26.65-.47,1.08-.5.06,0,.11,0,.17,0,0,.02,0,.03,0,.05-.2.03-.4.06-.6.11-.1.02-.21.07-.28.14-.35.29-.68.59-1.02.89-.01.01-.02.03-.03.05.01.01.02.02.03.03.08-.06.16-.12.23-.19.27-.24.54-.48.81-.72.07-.06.16-.1.25-.13l-.3.22s0,.02.01.02c.19-.1.38-.21.58-.29.21-.09.42-.12.69.02-.46.28-.63.75-.98,1.08-.01,0-.03-.02-.04-.02.05-.08.1-.15.15-.23-.02-.01-.03-.02-.05-.03-.04.02-.09.05-.14.08.03-.05.06-.1.09-.14,0,0-.01-.01-.02-.02-.02.01-.05.02-.06.03-.26.31-.56.59-.87.85-.24.21-.41.49-.62.74-.11.14-.22.29-.35.42-.14.13-.22.29-.32.45-.14.22-.3.42-.46.63-.16.22-.34.43-.48.66-.18.3-.33.62-.51.92-.14.24-.3.47-.43.72-.09.17-.15.36-.22.54-.05.11-.09.22-.15.32-.13.27-.26.54-.4.81-.1.19-.21.38-.3.57-.11.22-.22.45-.32.68-.06.14-.11.28-.16.42-.05.13-.11.25-.13.39-.08.56-.15,1.12-.21,1.69.02-.1.05-.21.07-.31.02,0,.04,0,.05,0-.03.3-.07.6-.1.87-.06.06-.11.11-.16.16h.05s.06.09.05.13c0,.15-.03.3-.03.45,0,.24.1.32.33.27.3-.06.51-.28.76-.42.12-.07.26-.12.39-.17.07-.03.14-.05.21-.08.25-.08.49-.18.74-.25.29-.07.54-.19.75-.4.08-.08.2-.13.31-.19.29-.16.57-.33.86-.49.05-.03.09-.07.12-.11.27-.37.54-.74.8-1.11.08-.12.13-.26.21-.38.15-.25.3-.5.45-.75.05-.08.11-.16.14-.25.14-.43.44-.76.69-1.12.08-.12.14-.25.21-.38.02-.03.04-.06.07-.09.07.23-.02.42-.15.59.02,0,.04.01.05.02.19-.36.38-.72.58-1.1-.08.04-.13.19-.2.07-.01-.09-.03-.15-.03-.22,0-.45.15-.83.44-1.17.1-.12.1-.33.14-.5.04-.16.06-.31.09-.47.04-.2.09-.41.14-.65-.04.05-.06.07-.08.09-.13-.41-.32-.81-.24-1.27l-.05.13s-.03,0-.05,0c-.02-.33.23-.61.2-.95-.1.27-.21.54-.31.81-.01,0-.03-.01-.04-.02l.16-.4s-.02,0-.03-.01c-.06.11-.11.22-.17.33,0,0-.01,0-.02,0,.05-.22.1-.44.15-.66,0,0-.01,0-.02,0-.05.1-.1.21-.17.35l-.05-.14c-.02.07-.03.13-.04.18-.02,0-.03,0-.05,0,0-.09,0-.17.01-.25-.02.01-.04.04-.11.09-.04-.11-.1-.21-.1-.3,0-.1.07-.19.11-.3-.04-.01-.08-.02-.11-.03-.12.09-.24.18-.36.27.02-.05.04-.11.07-.2-.1.06-.16.11-.22.15,0,0-.01,0-.02-.01.06-.13.13-.25.19-.38,0,0-.02,0-.02-.01-.08.1-.16.2-.22.29-.06,0-.12,0-.13.01-.08.14-.21.12-.33.12-.2,0-.35.07-.5.19-.06.05-.14.08-.21.12-.06.04-.11.08-.16.13-.04.05-.08.11-.12.16-.01,0-.02-.01-.04-.02.01-.04.02-.08.03-.11.09-.11.18-.23.27-.34Zm-2.54,2.2l-.41.59c.23-.13.31-.37.41-.59.13-.18.26-.37.39-.55l-.06-.04c-.11.2-.22.39-.32.59Zm5.41,1.29c.02-.05.02-.11.05-.15.03-.04.1-.05.11-.09.07-.19.12-.38.17-.58.02-.06,0-.13-.02-.2-.19.09-.64,1.1-.59,1.34.08-.22.15-.42.22-.61,0,.13-.05.25-.08.38-.02.07-.02.07.06.09-.06.18-.12.37-.18.55.01,0,.03.01.04.02.1-.26.21-.53.31-.79,0,0-.02,0-.03-.01-.02.02-.04.04-.06.06ZM2.92,14.78s.04.02.06.03c0-.04,0-.07,0-.11.02-.21.05-.43.07-.64.01-.21,0-.42.01-.63.04-.36.11-.73.16-1.09,0-.03,0-.06,0-.1,0,0-.02,0-.03,0-.08.41-.16.82-.23,1.24-.05-.01-.09-.03-.13-.04-.02.09-.06.17-.07.26,0,.05.02.11.03.16.05-.01.1-.03.17-.05-.01.32-.03.64-.04.97Zm.22.43s0,0,0,.01c.07,0,.14,0,.2,0,.05,0,.13-.04.16-.01.09.08.16.02.23,0,.47-.2.95-.39,1.41-.6.25-.12.49-.29.73-.44,0-.01-.02-.03-.03-.04-.12.08-.25.16-.37.25-.17.12-.35.2-.56.25-.42.11-.83.24-1.24.36,0,.01,0,.03.01.04l.23-.04s0,.04.01.06l-.78.18Zm-.37-2.8h.06c.02.26.04.53.05.79.01,0,.03,0,.04,0,0-.02.02-.04.02-.07.03-.37.07-.73.09-1.1,0-.04-.05-.09-.08-.14-.03.04-.08.08-.1.13-.07.16-.13.31-.19.47h-.03c0-.16,0-.3,0-.45,0,0-.01,0-.02,0-.02.24-.04.48-.07.72,0,0,.02,0,.02.01.06-.13.13-.25.19-.38ZM11.68,3.02h-.04c0,.12,0,.25-.02.38,0,.05-.06.11-.1.15-.19.18-.23.42-.28.66.05-.04.08-.1.13-.13.04-.03.11-.04.17-.06.01.37-.15.71-.07,1.08.11-.69.2-1.37.22-2.07ZM3.05,9.48s.02.01.03.02c.05-.08.09-.16.13-.25.2-.4.39-.81.6-1.2.12-.22.28-.41.43-.61.05-.07.1-.13.14-.19.04-.06.08-.13.12-.2,0,0,0,0-.01,0-.2.23-.41.47-.62.71-.02.2-.2.34-.29.53-.09.2-.19.39-.28.59-.09.2-.16.41-.25.61Zm8.37-1.76l-.03-.09s.02-.02.03-.03c.03.03.05.05.05.05,0-.09-.02-.18,0-.26.08-.24.17-.47.25-.71.02-.05.03-.11.04-.17,0,0-.01,0-.02,0-.09.24-.18.47-.28.71h-.02c0-.07.02-.13.03-.19,0,0-.01,0-.02,0-.19.54-.37,1.08-.56,1.62l.04.02c.12-.28.25-.57.38-.85.02-.03.06-.06.1-.1Zm-2.82,3.98s0,0,0,0c-.6.59-1.19,1.19-1.79,1.78v.02c.18-.14.35-.28.52-.42,0,0,.01.01.02.02-.08.1-.16.2-.24.3.01.01.03.02.04.03.49-.57.97-1.14,1.46-1.72Zm-3.58-5.03q.24-.31.24-.41s-.07.07-.09.08c-.04-.06-.08-.16-.11-.15-.06,0-.14.05-.19.1-.08.09-.14.19-.2.3-.02.04,0,.11,0,.16.04-.01.09-.02.13-.05.05-.03.08-.08.13-.13.03.03.05.06.08.09Zm-.23,1.19s-.02-.01-.03-.02c-.36.54-.73,1.08-.98,1.7.13-.04.09-.29.3-.18-.04-.06-.06-.09-.09-.13,0,0,.02-.02.03-.02.03.02.06.04.12.09,0-.09,0-.15,0-.22.02,0,.04,0,.03,0,.08-.21.13-.42.23-.61.11-.21.26-.41.39-.61ZM8.98,1.84c-.49.28-.82.72-1.16,1.15.39-.38.77-.77,1.16-1.15ZM2.67,14.8s.03,0,.05,0c-.04-.46-.07-.91-.11-1.41-.08.42-.03,1.31.07,1.41Zm2.79-8.55s-.03-.01-.04-.02c-.21.34-.43.68-.64,1.02.01.01.03.02.04.03.05-.06.1-.11.16-.17,0,0,.01,0,.02.01l-.04.12s.02,0,.03.01c.08-.09.16-.18.25-.29-.07-.01-.1-.02-.16-.03.14-.24.27-.46.4-.68Zm-3.1,6.42h.05c.02-.06.06-.12.06-.18,0-.11.08-.22-.01-.35-.06-.09,0-.26,0-.4,0-.1.03-.21.04-.31-.02,0-.04,0-.06,0-.03.41-.06.83-.09,1.24ZM8.09,3.01c-.25.18-.78.86-.8,1.06.28-.37.55-.73.8-1.06Zm-2.71,10.99s.02.03.03.05c.44-.25.87-.49,1.31-.74,0-.01-.01-.02-.02-.04-.44.24-.88.48-1.32.73ZM12.33,4s-.03,0-.05,0c-.02.42-.04.85-.05,1.27.02,0,.04,0,.06,0,.01-.43.03-.85.04-1.28Zm-.31,2.94h-.04c-.12.34-.24.69-.36,1.05.26-.31.26-.7.4-1.05Zm-6.46-1.28c-.13-.07-.39.19-.43.43.2-.1.3-.27.43-.43Zm3.6,6.41c.32-.13.43-.4.51-.71-.18.25-.35.48-.51.71Zm-5.97-1.23s.03.02.05.02c.18-.36.37-.72.55-1.08-.02,0-.03-.02-.05-.02-.18.36-.37.72-.55,1.08ZM12.07,2.56c.09.04.14.07.2.09,0-.09.03-.19.01-.28,0-.03-.08-.06-.12-.09-.03.08-.05.17-.09.28Zm-5.34,1.36c-.12.06-.11.24-.3.25-.07,0-.14.17-.22.29.34-.05.38-.34.52-.54Zm-2.03,3.21s.03,0,.04.01c.07-.13.15-.26.21-.38-.13.05-.25.11-.4.17.07.03.12.04.16.06,0,.04,0,.09-.01.13Zm-.5.6s-.03-.02-.04-.03c-.15.23-.31.46-.46.69.02.01.04.02.05.04.15-.23.3-.46.44-.69Zm7.08,1.11s-.04-.02-.06-.03c-.15.34-.3.67-.44.98.16-.3.33-.63.5-.96Zm-1.13,1.94s-.04-.02-.05-.03c-.1.2-.28.35-.34.57.01,0,.03.02.04.03.12-.19.24-.37.35-.56Zm.24-.44s0,0,0,0c.1-.23.2-.46.3-.68,0,0-.02,0-.02-.01-.09.23-.19.46-.28.69Zm-2.07,1.92s-.02-.01-.03-.02c-.17.21-.33.42-.5.62.04.02.06.01.07,0,.15-.2.31-.4.46-.61ZM12.33,2.69s-.03,0-.05,0c-.1.11-.09.26.05.42,0-.16,0-.29,0-.42Zm-3.13-.94s.03.03.04.04l.45-.38s-.02-.03-.03-.04c-.15.13-.31.25-.46.38Zm-4.91,12.68s-.01-.02-.02-.04c-.18.11-.35.22-.53.34,0,.02.02.03.03.05l.52-.34Zm2.75-9.95s-.03-.02-.05-.03c-.12.17-.24.34-.35.51.01,0,.03.02.04.03.12-.17.24-.33.36-.5Zm-1.01,1.12s.03.03.04.05c.1-.09.21-.19.31-.28l-.05-.05c-.1.1-.2.19-.31.29Zm5.84-1.03c.15-.12.15-.23.01-.29,0,.1,0,.19-.01.29Zm-.01.42c-.14.04-.09.14-.1.22,0,.01.04.03.06.05.02-.06.04-.12.06-.18,0-.02,0-.05-.01-.09Zm-4.83-1.87c-.01.13-.02.22-.04.32.01,0,.03,0,.04,0,.11-.16.12-.2,0-.32Zm-3.94,7.02s-.05-.02-.07-.02c-.06.14-.13.29-.19.43.01,0,.02,0,.03.01.08-.14.15-.28.23-.42Zm5.84,1.26s-.06-.02-.08-.03c-.03.06-.05.12-.08.18.04,0,.1.01.12-.01.03-.03.03-.09.04-.14Zm2.33-7.78s.03,0,.04,0c.03-.2.06-.4.08-.6-.01,0-.02,0-.03,0-.03.2-.06.4-.09.6Zm-4.1-.47s0,.01.01.02c.05-.06.11-.11.16-.17.01-.01,0-.05-.02-.08-.02,0-.06.01-.07.03-.03.06-.06.13-.08.2Z"/>
      <path class="cls-2" d="m8.11,9.77s.08.06.12.09c.15.08.19.24.25.38.01.03-.03.08-.04.12.04,0,.08.01.15.02-.05.03-.07.05-.12.08.07,0,.12,0,.16.01,0,.01,0,.02,0,.03-.06,0-.13.01-.19.02,0,0,0,.02,0,.03.04,0,.08.01.11.02-.08.11-.16.21-.26.34.07,0,.11,0,.16,0,0,0,0,.01,0,.02-.05.02-.11.03-.16.05,0,0,0,.02,0,.03.06,0,.12,0,.18,0-.19.11-.75.14-.96-.06.01.04.02.08.04.11.08.08.16.15.25.22.1.08.16.19.16.33-.1.06-.18.05-.27-.03-.11-.11-.25-.21-.37-.31,0,0-.02.02-.02.03.08.07.16.13.23.2.07.07.14.14.21.2-.1.08-.19.16-.29.25.16-.02.29-.03.41-.04,0,.02,0,.04.01.05-.06.02-.13.06-.18.05-.18-.04-.31.05-.46.15.1,0,.19,0,.29,0v.04s-.08.03-.12.03c-.09.01-.19-.02-.25.1-.03.05-.11.07-.18,0-.05-.06-.12-.1-.2-.13.1.11.21.22.31.32,0,0-.02.01-.03.02.06,0,.12,0,.18,0,0,.02,0,.04-.01.06-.19-.05-.38-.04-.56-.18-.16-.13-.36-.19-.56-.26.14.09.28.18.45.29-.12-.02-.2-.03-.29-.04,0,.01,0,.03,0,.04.12.04.24.07.4.12-.1,0-.15,0-.21,0,0,.01,0,.02,0,.03.08,0,.15.01.23.02,0,0,0,.02,0,.03-.04.01-.08.02-.13.04h0c-.06,0-.11,0-.14,0-.21-.2-.4-.38-.59-.57,0,0-.01.01-.02.02.21.23.43.46.67.72-.12,0-.18.01-.25.02,0,0,0,.02,0,.02.06.03.13.05.2.08-.17.07-.29.13-.42.18-.05.02-.13.07-.15.05-.06-.04-.1-.12-.15-.18-.03-.03-.05-.08-.08-.1-.16-.09-.25-.24-.35-.38-.13-.19-.13-.26.02-.45.02-.02.03-.04.04-.06.05-.06.11-.17.16-.17.12,0,.24.05.35.09.05.02.09.05.15.06-.05-.04-.1-.08-.15-.11-.26-.16-.35-.46-.51-.7-.02-.03-.02-.08-.02-.12,0-.11.03-.22.03-.33,0-.3.2-.48.42-.6.16-.09.39-.15.59.01.16.13.33.22.51.33.08.05.16.08.24.13,0-.01.01-.02.02-.04-.08-.05-.15-.1-.23-.15-.23-.15-.47-.3-.7-.44-.13-.08-.15-.21-.16-.34-.02-.17,0-.33.16-.44.02-.02.03-.07.04-.1.04-.14.11-.18.25-.17.39.05.73.2,1.04.43.2.15.43.26.64.38h0Zm-.94.28c-.09-.2-.64-.53-.81-.49.26.16.55.33.81.49Zm-1.14,2.94s.03-.03.04-.04c-.21-.21-.43-.42-.64-.64-.01.01-.02.02-.03.03.21.22.42.43.63.65Zm.41-3.59s0,0,0,0c.23.12.46.25.69.37,0,0,0-.02.01-.02-.23-.12-.46-.24-.7-.35Zm-.32,3.36s.02-.02.03-.03c-.16-.17-.32-.33-.48-.5,0,0-.02.02-.03.03.16.17.32.34.48.5Zm.08-1.94s-.02.02-.02.03c.13.11.26.23.39.34.01-.02.03-.03.04-.05-.13-.11-.27-.21-.4-.32Zm1.98-.22s.02-.03.03-.04c-.15-.1-.29-.2-.44-.3,0,0-.01.02-.02.03.14.11.29.21.43.32Zm-1.36,1.04s-.01.02-.02.02c.12.11.25.22.37.33,0-.01.02-.02.03-.03-.13-.11-.26-.22-.38-.32Zm1.11-1.57s-.01.02-.02.03c.12.1.25.2.37.3.01-.01.02-.03.03-.04-.13-.1-.26-.19-.38-.29Z"/>
      <path class="cls-2" d="m7.96,4.48s.04.02.07.03c.23.03.48.03.63.25.02.03.06.04.1.05-.15-.13-.14-.31-.08-.45.06-.14.18-.26.29-.37.07-.08.17-.14.25-.23-.07.04-.14.07-.2.12-.21.14-.32.13-.48-.07-.02-.03-.04-.05-.09-.1.13-.2.26-.4.39-.6.11-.16.48-.16.6,0,.03.04.09.07.14.1.02.02.05.04.07.07.13-.09.27-.17.45-.18.16,0,.24.06.29.18.04.11.08.22.13.36-.03,0-.09.04-.13.03-.24-.08-.48-.04-.72-.01-.14.02-.23-.05-.23-.19-.05.1-.09.17-.14.27.24,0,.46-.02.67-.03,0,0,0,.03,0,.03.12,0,.24,0,.36,0,0,0,0,.01,0,.02.04.02.07.04.11.05.19.02.34.12.47.25.11.12.08.27.05.41-.02.09-.08.16-.2.09-.08-.05-.18-.06-.28-.07.11.06.23.1.32.18.11.1.22.22.29.35.08.13.04.27-.05.39-.04.05-.11.08.02.13-.08,0-.13,0-.17,0,0,.01,0,.02,0,.04-.22-.05-.45-.1-.67-.15.04.1.43.26.65.26-.02.03-.04.05-.06.09.04,0,.08.01.07.01.02.09.02.16.04.23.02.06.04.13.06.17-.05.1-.1.2-.15.31-.08.05-.18.09-.25.16-.06.06-.11.07-.17.04-.19-.09-.38-.18-.57-.27-.1-.04-.2-.08-.3-.11-.23-.07-.47-.13-.69-.21-.15-.06-.29-.16-.43-.24-.02-.01-.02-.07-.02-.11,0-.05.03-.1.02-.17-.04.05-.08.09-.13.15-.03-.05-.04-.07-.06-.1-.02.03-.05.06-.07.1-.29-.1-.55-.33-.93-.3.06-.05.08-.07.12-.11-.07-.04-.13-.08-.23-.14.09,0,.14,0,.19.01,0,0,0-.02,0-.03-.06-.01-.12-.03-.19-.04,0-.01,0-.03,0-.04.12-.01.24-.02.41-.04-.13-.04-.22-.06-.31-.09,0-.01,0-.02,0-.03.22.02.44.03.67.05,0-.01,0-.02,0-.04-.1-.03-.21-.06-.31-.08-.11-.02-.22-.02-.33-.07l.39-.04s0-.02,0-.03c-.11,0-.21-.02-.32-.03,0-.02,0-.03,0-.05.12,0,.24-.01.39-.02-.08-.03-.14-.05-.19-.06,0-.01,0-.02,0-.03.11-.03.22-.05.33-.08.04,0,.07,0,.11.01Zm1.75,1.33s-.02.03-.03.05c.19.09.39.17.58.26l.02-.03c-.17-.08-.34-.16-.5-.25.04,0,.07,0,.11,0-.04-.05-.08-.06-.12-.08-.16-.04-.32-.08-.48-.13-.04-.01-.08-.06-.12-.09-.05.09.02.12.1.15.15.05.3.09.45.13Zm-.62-.58c.28.05.54.1.81.15,0,0,0-.02,0-.02l-1.03-.48s0,.02-.01.03c.08.11.16.22.22.32Zm.97.92c-.15-.15-1.04-.46-1.25-.44.41.15.83.29,1.25.44Zm.31-1.36c-.26-.17-.56-.22-.86-.3,0,.01,0,.02-.01.04.29.09.58.17.87.26Zm-.35-.4c.02.18.17.14.26.19.04-.05.08-.08.11-.12-.12-.02-.24-.05-.38-.07Zm-.51-.27s0,.03-.01.04c.29.08.58.16.87.24,0-.01,0-.02,0-.04l-.86-.24Zm-.4.16s0,.03,0,.04c.27.05.54.1.81.14v-.04c-.26-.05-.53-.1-.8-.15Z"/>
      <path class="cls-2" d="m8.11,9.77c-.27-.19-.55-.39-.82-.59-.08-.06-.16-.13-.23-.21-.06-.07-.12-.13-.27-.07.04-.12.05-.21.09-.28.29-.47.73-.54,1.23-.47.4.06.75.25,1.08.46.13.08.19.26.28.4.01.02,0,.05-.01.08,0,.03-.02.06-.03.1-.07,0-.16.02-.26.03,0,.02,0,.03,0,.05.07,0,.14-.01.21-.02,0,.01,0,.03.01.04l-.33.12c.06.02.12.04.18.06,0,0,0,.02,0,.03-.09.02-.18.03-.28.05.07.04.12.07.18.1,0,.01-.01.03-.02.04-.05.01-.1.03-.14.04,0,0,0,.02,0,.02.05,0,.09.01.14.02,0,.01,0,.02,0,.04l-.24.07s0,.02,0,.02c.06,0,.13,0,.2,0-.02.02-.02.04-.04.05-.18.11-.51.08-.68-.05-.08-.06-.18-.1-.27-.14,0,0,0,0,0,0Z"/>
      <path class="cls-2" d="m11.99,11.71s0,.03,0,.05c.34.02.69.05,1.03.06,0-.03,0-.05,0-.08-.34,0-.69-.02-1.03-.03Zm0,.49s0-.03,0-.05c-.16,0-.32-.01-.49-.02,0,.01,0,.03,0,.04l.48.02Z"/>
      <path class="cls-2" d="m6.53,7.19c.08.04.16.11.24.12.19,0,.29.15.41.24.09.07.1.22.15.34.01.03.01.07.02.08-.03.07-.04.14-.09.17-.15.12-.25.32-.49.32-.03,0-.05.07-.08.11-.03.04-.05.09-.08.11-.09.05-.39-.04-.45-.12-.13.13-.22-.06-.33-.06-.12,0-.23-.08-.36-.13,0,0-.06.03-.07.03-.03-.06-.06-.12-.09-.18.01-.01.02-.02.04-.04h-.07s-.02,0-.03-.01c.03-.02.06-.04.08-.06-.02,0-.04,0-.05.01-.02-.02-.07-.04-.06-.06.01-.11.03-.21.06-.36.24.08.49.17.73.25,0-.01,0-.02.01-.03-.2-.08-.4-.17-.6-.23-.11-.04-.09-.1-.06-.16.09-.14.19-.28.31-.44,0,.07,0,.11,0,.13.34.14.66.27.85.35-.16-.09-.45-.26-.7-.4.11,0,.28.02.45.03h.25Zm-.06.75s0-.02.01-.04c-.18-.08-.36-.17-.54-.25,0,.02-.02.03-.02.05.18.08.37.16.55.24Z"/>
      <path class="cls-2" d="m6.53,6.41c-.17,0-.35-.01-.52-.02.07-.08.13-.19.22-.24.08-.05.19-.05.29-.05.08,0,.17.02.25.03-.08-.08-.15-.16-.23-.23l.03-.03c.09.01.18.02.27.04-.18-.1-.18-.11-.08-.28.04,0,.06,0,.07-.01.09-.09.25-.07.33.02.04.05.14.05.24.08.07.07.18.16.28.25-.02,0-.05,0-.09,0,.06.05.1.08.15.12,0,.01,0,.02-.01.03-.1-.03-.2-.06-.32-.09.09.13.35.07.34.29,0,.13.27.21.06.38.15.02.19.12.18.26-.08-.04-.16-.09-.24-.13-.07-.04-.15-.08-.22-.13,0,.01-.01.02-.02.03.15.09.3.18.46.26-.07.07-.13.13-.19.18-.08.08-.46.24-.59.17-.13-.07-.25-.15-.39-.2-.21-.08-.41-.15-.63-.19-.1-.02-.13-.08-.17-.15,0,0,.01-.02,0-.03-.04-.1-.15-.23-.04-.31.09-.06.25-.03.38-.04.06,0,.11,0,.17,0,0-.01,0-.02,0-.03Zm.43-.12s0-.04.01-.05c-.17-.03-.34-.07-.51-.1,0,.01,0,.02,0,.04.17.04.34.08.5.12Z"/>
      <path class="cls-2" d="m10.26,6.8c-.08.02-.14.03-.2.04,0,0,0,.02,0,.03.08,0,.15,0,.23,0-.12.09-.23.07-.34-.02-.39-.3-.88-.37-1.33-.55l-.02.04s.09.04.14.06c.24.08.48.16.71.25.14.06.28.14.41.23.12.08.23.14.38.1.03,0,.06.01.09.05l-.3.06s0,.02,0,.03c.12,0,.24-.02.36-.02,0,.02,0,.04,0,.07-.1.02-.21.03-.31.05.11.06.25-.02.35.06,0,.03-.01.05-.02.08-.16-.03-.33-.05-.47-.07.05.04.12.1.2.16-.04.02-.07.04-.13.08.1,0,.17.01.23.02,0,0,0,.02,0,.02-.05.01-.1.03-.16.04,0,.01,0,.02,0,.03h.26s0,.03.01.04c-.04.02-.07.05-.11.05-.11.01-.23-.04-.3.08,0,0-.05,0-.07-.02-.33-.22-.67-.42-1.05-.54-.1-.03-.2-.07-.31-.09-.22-.05-.33-.21-.42-.4-.05-.12-.13-.22-.21-.32-.13-.16-.1-.38.08-.41.11-.02.22-.03.33,0,.23.06.47.13.69.22.37.15.74.31,1.11.47.05.02.09.05.16.09Zm-.29.32c-.39-.26-.84-.39-1.26-.56,0,.01,0,.02-.01.04.43.18.85.35,1.28.53Z"/>
      <path class="cls-2" d="m9.89,8.27c-.05-.01-.11-.02-.16-.03.02.18.17,0,.24.09-.13.02-.21.06-.2.23,0,.11-.11.06-.19.02-.3-.17-.6-.33-.89-.5-.01.02-.02.03-.03.05.04.02.08.04.11.06.3.17.6.35.9.52.05.03.13.02.2.02-.18.1-.33.06-.46-.11-.02-.03-.07-.04-.1-.06-.22-.12-.44-.25-.66-.35-.22-.1-.44-.23-.73-.14.05-.04.06-.06.08-.08,0-.01,0-.02-.01-.03-.1.02-.21.05-.31.07-.14.03-.22,0-.26-.15-.09-.3-.05-.41.26-.56.13-.07.26-.15.4-.18.1-.02.23,0,.32.05.35.19.69.38,1.02.59.19.12.35.28.52.42-.01.02-.02.04-.03.06Zm-.99-.35s-.01.03-.02.04c.26.13.52.27.77.4,0-.01.01-.03.02-.04-.26-.13-.52-.27-.77-.4Zm-.08.05v.04c.21.13.44.25.67.38,0-.01.02-.03.02-.04-.23-.12-.46-.25-.7-.37Z"/>
      <path class="cls-2" d="m2.56,7.76s-.01-.03-.02-.05c-.22.04-.45.09-.67.13,0,.02,0,.03.01.05.22-.09.47-.02.68-.14Z"/>
      <path class="cls-2" d="m4.4,10.09s.08-.1.12-.16c0,0,.02.01.03.02-.01.03-.03.05-.05.09.28-.14.83-.11,1.06.16-.38.2-.36.56-.33.9-.25-.07-.49-.13-.72-.19,0,.02-.01.04-.02.05.03.01.05.02.08.03.09.02.19.04.28.07.22.07.44.13.45.43-.06.03-.12.05-.2-.03-.16-.16-.25-.16-.46-.04-.04.02-.1.03-.14.04,0-.01-.01-.03-.02-.04.02-.01.04-.03.05-.04-.08-.03-.15-.06-.23-.1-.15-.06-.25-.17-.29-.33,0-.04,0-.08,0-.11-.09.03-.1-.07-.1-.14,0-.25.09-.46.3-.61.04-.03.11,0,.18,0Z"/>
      <path class="cls-2" d="m2.1,7.02l-.02-.05c-.24.07-.48.14-.72.22,0,.01,0,.03.01.04.24-.07.48-.14.72-.21Z"/>
      <path class="cls-2" d="m3.92,11.45s-.01-.07-.02-.11c.15-.07.28,0,.42.07.26.14.51.27.77.4.06.03.1.24.06.33-.04.09-.07.17-.09.26-.05.18-.28.26-.43.15-.17-.12-.32-.26-.5-.36-.2-.12-.4-.42-.39-.64,0-.1.08-.15.19-.1Z"/>
      <path class="cls-2" d="m4.82,9.48c-.03-.1.04-.05.07-.04.19.05.39.09.58.14,0-.02,0-.03.01-.05-.24-.06-.48-.12-.7-.18-.06.11-.12.2-.17.29-.01,0-.03,0-.04-.01,0-.03-.01-.06,0-.09.03-.09.06-.19.1-.28,0-.01.05-.01.07-.02.27.07.53.14.79.21,0,0,0-.01,0-.02-.23-.08-.46-.16-.7-.23-.02,0-.06.03-.09.04.02-.07.04-.14.06-.2-.02,0-.06.03-.11.05,0-.17.13-.14.24-.16-.04-.04-.07-.08-.12-.14.14-.04.28-.07.41-.11-.02-.06-.02-.15.11-.13.18.03.36.08.53.13.09.02.18.05.3.09-.09.02-.14.03-.2.04.02.05.05.11.08.18-.05.04-.11.08-.18.13l.08.21c-.07.04-.15.08-.21.11l.05.14s-.02.02-.04.02c.03,0,.07,0,.12.02-.08.05-.14.09-.2.13-.06.04-.11.1-.19.04-.03-.03-.07-.05-.1-.08-.14-.06-.28-.12-.42-.18-.05-.01-.09-.03-.14-.04Z"/>
      <path class="cls-2" d="m1.17,11.74s.02-.04.04-.06l-.28-.15s-.02.04-.03.05c.09.05.18.1.28.16Z"/>
      <path class="cls-2" d="m4.49,13.09c.07-.1.12-.21.2-.3.13-.14.33-.12.51-.15.02,0,.06.03.08.06.07.11.14.22.19.34.08.15.02.27-.13.34-.01,0-.02,0-.03.02-.04.05-.08.11-.13.17-.01-.01,0,0,.03.03-.09,0-.19.02-.26-.01-.07-.03-.13-.11-.2-.17,0,.03,0,.05.01.09-.03,0-.06-.02-.1-.03.02.03.03.06.05.09-.01,0-.02.01-.03.02-.07-.15-.14-.29-.21-.44,0,0,.01-.02.02-.03Z"/>
      <path class="cls-2" d="m4.49,13.09s-.01.02-.02.03c-.34.2-.56,0-.73-.25l-.14-.39.12-.04c-.04-.13,0-.24.14-.3.17.14.35.28.53.42,0,0,0-.01,0-.02.04.05.08.11.13.15.08.08.04.15,0,.23-.03.05-.03.11-.05.17Z"/>
      <path class="cls-2" d="m7.96,4.48s-.07,0-.11-.01c-.02-.01-.05-.03-.07-.04.01,0,.02-.02.06-.05-.11,0-.2,0-.3.01,0-.04-.01-.08,0-.11.06-.16.14-.3.3-.39.12-.06.25,0,.36-.03.18-.05.18.12.27.18-.08,0-.15-.02-.23-.02,0,0,0,.01,0,.02.07.03.13.05.16.06-.02.13-.04.24-.05.35-.01-.01-.04-.03-.09-.07,0,.04,0,.05,0,.07-.1,0-.2.02-.29.03Z"/>
      <path class="cls-2" d="m14.86,11.45s.06,0,.1.01c-.69-.02-1.38.22-2.08,0,0,0,0-.04,0-.04.17-.03.36-.1.51-.06.11.03.24-.01.35.07l-.04-.12c.09,0,.17,0,.24.02.12.04.45,0,.54-.1.02-.02.06-.03.08-.03.09.04.18.09.26.14.02.01.01.06.02.11Z"/>
      <path class="cls-2" d="m4.42,13.86c-.11.12-.24.15-.36.09-.11-.06-.13-.27-.04-.41.05-.07.1-.15.17-.18.08-.04.23-.07.27-.03.07.06.07.19.09.29,0,.06-.01.12-.02.19-.18-.05-.2-.21-.27-.36,0,.06,0,.08,0,.1-.02,0-.05-.02-.07-.03,0,0-.01.01-.02.02.08.1.16.2.25.32Z"/>
      <path class="cls-2" d="m3.71,14.28s-.03-.07-.06-.14c0,.08-.01.12-.02.17-.06-.06-.21-.02-.15-.19-.04,0-.07,0-.13,0,0-.11.02-.22.03-.34.16.02.3,0,.43.06.07.03.11.15.16.23-.07.02,0,.17-.14.14-.03,0-.08.04-.12.07Z"/>
      <path class="cls-2" d="m14.51,8.41c-.18,0-.31-.11-.42-.21-.15-.13-.27-.28-.47-.36-.12-.05-.21-.18-.31-.29.23.09.48.16.69.29.19.12.34.32.5.49.02.02,0,.06,0,.09h0Z"/>
      <path class="cls-2" d="m10.22,12.24c0,.05.02.12,0,.15-.18.23-.37.45-.56.67-.03.04-.1.04-.14.06-.05.23-.29.3-.4.49-.05-.17,0-.26.12-.36.25-.21.49-.44.72-.67.1-.1.18-.23.27-.34h0Z"/>
      <path class="cls-2" d="m12.85,3.11c0,.14.16.27.05.37.02.13.03.22.04.32-.08-.02-.13-.03-.17-.04-.05.19-.1.39-.15.59,0,0-.02,0-.03,0-.04-.18-.09-.37-.13-.55.02,0,.03-.01.05-.02.01.02.03.04.08.09.02-.17.04-.29.06-.42.03.07.06.14.1.21.01,0,.02,0,.03,0,.02-.19.04-.38.06-.56Z"/>
      <path class="cls-2" d="m3.61,13.3c.05,0,.08,0,.12,0-.02-.04-.04-.07-.06-.1.15.03.3.06.48.09-.11.14-.2.25-.29.35-.13.15-.19.14-.36-.01l.16-.06s-.08-.08-.14-.13c.07-.01.13-.02.19-.04-.02-.02-.04-.05-.09-.11Z"/>
      <path class="cls-2" d="m10.22,12.24c-.01-.23.14-.38.24-.56,0,0,.01-.02.02-.02.24.02.28-.22.43-.33,0,0,0,0,0,0-.07.18-.15.36-.23.57-.08-.06-.13-.09-.19-.13-.02.06-.03.1-.05.16,0,.04.02.1.03.16-.11,0-.1.2-.24.14,0,0,0,0,0,0Z"/>
      <path class="cls-2" d="m11.57,11.09c.03-.11.09-.13.2-.11.31.05.63.08.94.14-.21.02-.41.08-.62,0-.09-.04-.21-.02-.32-.02-.06,0-.13,0-.19,0Z"/>
      <path class="cls-2" d="m11.36,11.42c.1-.17.85-.18.98-.03-.33,0-.65.02-.98.03Z"/>
      <path class="cls-2" d="m14.72,9.5c.23-.03.43-.01.61.16.06.06.17.06.26.11-.03,0-.06,0-.14,0,.07.05.11.07.14.09,0,.01,0,.02-.01.04-.21-.09-.41-.19-.62-.28-.08-.04-.16-.07-.25-.11,0,0,0,0,0,0Z"/>
      <path class="cls-2" d="m14.99,11.14c.16-.05.29-.07.41-.13.12-.05.28-.04.38.08-.27-.04-.5.19-.79.05Z"/>
      <path class="cls-2" d="m1.47,9.79c.41.01.82.02,1.24.03-.47.11-1.11.09-1.24-.03Z"/>
      <path class="cls-2" d="m5.38,9.71s.07.05.1.08c.02.02.03.05.04.06-.15,0-.31,0-.47.01-.02,0-.06-.01-.06-.03-.01-.02-.01-.06,0-.08.03-.05.07-.08.11-.13.09.03.19.06.28.09Z"/>
      <path class="cls-2" d="m12.11,13.29s.03-.06.05-.08c.02-.02.04-.05.06-.05.25.01.24,0,.48-.11.13-.06.28-.06.41-.11.21-.08.41-.18.61-.28.04-.02.09-.03.13-.05,0,.02.01.04.02.05-.26.11-.52.22-.79.32-.27.1-.55.19-.83.27-.05.02-.11.02-.16.03,0,0,0,0,0,0Z"/>
      <path class="cls-2" d="m15.66,11.37c-.27,0-.48.03-.69,0v-.07c.2-.02.4-.05.59-.06.02,0,.05.06.1.13Z"/>
      <path class="cls-2" d="m14.28,11.68c.33-.05.66-.09.97-.14-.28.26-.63.13-.96.18,0-.02,0-.03,0-.05Z"/>
      <path class="cls-2" d="m10.72,1.66c.04-.29.08-.58.11-.88.01-.11.06-.15.18-.16-.06.17-.13.34-.17.51-.04.17-.06.35-.09.53-.01,0-.02,0-.03,0Z"/>
      <path class="cls-2" d="m14.32,10.38c.36.04.72.09,1.07.13,0,.02,0,.03,0,.05-.36-.04-.72-.07-1.08-.11,0-.03,0-.05.01-.08Z"/>
      <path class="cls-2" d="m10.63.4c.21-.12.38-.07.47.13-.18.07-.32-.01-.47-.13Z"/>
      <path class="cls-2" d="m15.66,10.06c-.07.09-.16.09-.26.06-.12-.03-.23-.05-.35-.07,0-.01-.01-.03-.02-.04.03-.02.07-.07.1-.06.17.03.35.07.52.11h0Z"/>
      <path class="cls-2" d="m14.53,8.09c-.22-.16-.49-.24-.66-.47l.03-.04c.22.16.43.31.65.47,0,.02-.02.03-.02.05Z"/>
      <path class="cls-2" d="m9.87,12.05c-.14.26-.3.51-.53.69-.01-.01-.03-.02-.04-.03.19-.22.38-.44.57-.66Z"/>
      <path class="cls-2" d="m6.53,7.19c-.08,0-.17,0-.25,0-.16-.04-.33-.07-.49-.11,0,0,0-.01,0-.02.07,0,.15-.01.22,0,.18.02.38-.01.53.13Z"/>
      <path class="cls-2" d="m15.66,10.06c.12-.06.22-.05.33.04.05.05.12.07.22.12-.19-.03-.34-.04-.49-.07-.02,0-.04-.06-.06-.1,0,0,0,0,0,0Z"/>
      <path class="cls-2" d="m9.1,1.23c.35-.26.71-.32.94-.14-.34-.12-.64,0-.94.14Z"/>
      <path class="cls-2" d="m14.84,9.65c-.26-.04-.51-.09-.77-.13,0-.02,0-.04.01-.06.26.05.51.09.77.14,0,.02,0,.04-.01.05Z"/>
      <path class="cls-2" d="m6.65,14.54c-.28.13-.56.26-.84.4l-.03-.06c.28-.12.57-.24.85-.36,0,0,0,.02.01.03Z"/>
      <path class="cls-2" d="m14.47,8.12c.19.11.39.23.58.34,0,.02,0,.04-.01.06-.05,0-.13.01-.13,0-.08-.21-.32-.22-.44-.4Z"/>
      <path class="cls-2" d="m8.63,2.87c-.09.11-.18.23-.27.34l-.12.04s-.02-.03-.03-.05c.11-.11.22-.22.34-.33.02-.01.05,0,.08,0Z"/>
      <path class="cls-2" d="m4.82,9.48s.09.03.14.04q.1.08,0,.15s.01-.04.03-.09c-.09.07-.15.11-.25.19.04-.09.06-.15.08-.2,0,0,0,0-.01-.01-.03.03-.06.06-.09.08l-.03-.03s.09-.09.14-.14Z"/>
      <path class="cls-2" d="m8.65,13.74c.11-.1.22-.19.33-.3.02.16-.06.25-.33.3Z"/>
      <path class="cls-2" d="m8.34,14.24c-.04-.06-.07-.1-.1-.15.08-.04.15-.07.22-.11.03.04.05.08.08.13-.07.04-.13.08-.2.13Z"/>
      <path class="cls-2" d="m13.36,12.54l.86-.19v.02c-.28.08-.57.15-.86.23,0-.02,0-.04,0-.06Z"/>
      <path class="cls-2" d="m10.53,1.39c-.07.16-.14.33-.21.49-.01,0-.03-.01-.04-.02.02-.19.09-.35.21-.49.01,0,.03.01.04.02Z"/>
      <path class="cls-2" d="m15.14,8.71c.19.12.37.25.56.37-.01.02-.02.03-.03.05-.19-.13-.37-.25-.56-.38.01-.02.02-.03.03-.05Z"/>
      <path class="cls-2" d="m13.82,7.31l.45.34s-.03.04-.04.05c-.15-.12-.29-.23-.44-.35l.04-.05Z"/>
      <path class="cls-2" d="m7.75,14.36c.05.06.08.11.11.15-.09.12-.19.1-.3.02.06-.05.12-.1.19-.16Z"/>
      <path class="cls-2" d="m10.28,11.73c-.15.22-.29.43-.44.65-.02-.01-.03-.02-.05-.03l.48-.63h.01Z"/>
      <path class="cls-2" d="m8.7,13.16c-.21.17-.43.35-.64.52-.01-.01-.02-.03-.03-.04.22-.17.43-.34.65-.51,0,0,.02.02.02.02Z"/>
      <path class="cls-2" d="m8.88,13.81c-.09.07-.17.15-.26.22,0,0-.06-.04-.11-.08.13-.07.23-.12.34-.18.01.01.02.03.03.04Z"/>
      <path class="cls-2" d="m15.8,11.17c.08.05.13.07.17.09-.22.1-.25.09-.31-.05.06-.02.12-.03.14-.04Z"/>
      <path class="cls-2" d="m10.9,11.34c.11-.19.22-.38.33-.58-.06.22-.16.42-.34.57,0,0,0,0,0,0Z"/>
      <path class="cls-2" d="m2.29,8.67c.2-.02.35-.04.51-.05-.02.11-.2.13-.51.05Z"/>
      <path class="cls-2" d="m7.61,14.78c.12-.05.23-.1.35-.16-.04.16-.22.24-.35.16Z"/>
      <path class="cls-2" d="m14.46,11.05c-.12.03-.23.05-.36.08.03-.06.05-.09.08-.16.08,0,.18.02.29.04,0,.01,0,.02,0,.04Z"/>
      <path class="cls-2" d="m8.07,14.37s-.07.06-.12.1c-.04-.05-.08-.09-.12-.13.12-.12.16-.12.24.03Z"/>
      <path class="cls-2" d="m15.42,9.94c-.15-.03-.31-.06-.46-.09,0-.02,0-.04.01-.06.16.03.31.06.47.08,0,.02-.01.04-.02.07Z"/>
      <path class="cls-2" d="m14.51,8.42c.1.04.2.09.29.13.03.02.06.04.12.09-.19-.02-.32-.09-.42-.23,0,0,0,0,0,0Z"/>
      <path class="cls-2" d="m12.8,4.5c-.13-.07-.13-.22,0-.36,0,.13,0,.24,0,.36Z"/>
      <path class="cls-2" d="m.32,8.27c-.11.08-.23.16-.38.27.1-.12.17-.22.26-.31.01-.01.08.03.13.04,0,0,0,0,0,0Z"/>
      <path class="cls-2" d="m6.52,12.69s.08.03.14.05c-.08.05-.04.2-.18.16-.01-.06-.03-.1-.04-.15.02,0,.05-.03.08-.04,0,0,0,0,0,0Z"/>
      <path class="cls-2" d="m13.51,11.06c.14,0,.29-.01.45-.02-.11.1-.15.1-.45.02Z"/>
      <path class="cls-2" d="m11.71,10.82c.11,0,.23-.01.34-.02,0,.02,0,.04,0,.06-.11,0-.23.02-.34.03,0-.02,0-.05,0-.07Z"/>
      <path class="cls-2" d="m1.29,8.85s-.05-.02-.09-.04c.09-.07.16-.17.31-.06-.06.04-.1.06-.14.09l-.08.02Z"/>
      <path class="cls-2" d="m8.26,14.27c-.12.1-.16,0-.2-.06.11-.11.13-.1.2.06Z"/>
      <path class="cls-2" d="m14.93,10.05c-.06-.04-.13-.08-.19-.12.05-.01.1-.04.14-.03.04,0,.07.06.1.09-.02.02-.03.04-.05.06Z"/>
      <path class="cls-2" d="m1.78,8.26c.15-.03.29-.06.44-.1,0,.01,0,.03,0,.04-.15.03-.29.07-.44.1,0-.02,0-.03-.01-.05Z"/>
      <path class="cls-2" d="m10.27,11.72c.1-.16.2-.31.29-.47.01,0,.03.02.04.03-.11.15-.22.3-.32.45,0,0-.01,0-.01,0Z"/>
      <path class="cls-2" d="m2.28,6.66l-.66.24s0,0,0-.01l.66-.24s0,0,0,.01Z"/>
      <path class="cls-2" d="m12.23,12.8l-.37.02s0-.03,0-.05c.12-.01.24-.03.37-.04,0,.02,0,.05,0,.07Z"/>
      <path class="cls-2" d="m7.05,14.81c.13-.14.27-.17.31-.07-.1.02-.2.05-.31.07Z"/>
      <path class="cls-2" d="m1.66,8.2c-.11,0-.21.02-.32.02,0-.02,0-.04,0-.06.11,0,.21-.01.32-.02,0,.02,0,.04,0,.06Z"/>
      <path class="cls-3" d="m11.42,6.53c-.08-.02-.08-.02-.06-.09.04-.12.08-.24.08-.38-.07.19-.14.39-.22.61-.05-.23.4-1.25.59-1.34,0,.07.03.14.02.2-.05.19-.11.39-.17.58-.01.04-.08.05-.11.09-.03.04-.04.1-.05.15-.03.06-.06.12-.08.17Z"/>
      <path class="cls-3" d="m2.92,14.78c.01-.32.03-.65.04-.97-.07.02-.12.03-.17.05,0-.06-.03-.11-.03-.16.01-.08.04-.16.07-.26.04.01.08.02.13.04.08-.41.16-.82.23-1.24,0,0,.02,0,.03,0,0,.03,0,.07,0,.1-.05.36-.12.72-.16,1.09-.02.21,0,.42-.01.63-.01.21-.04.43-.07.64,0,.03,0,.07,0,.11-.02-.01-.04-.02-.06-.03Z"/>
      <path class="cls-3" d="m3.13,15.2l.78-.18s0-.04-.01-.06l-.23.04s0-.03-.01-.04c.41-.12.82-.25,1.24-.36.21-.05.39-.13.56-.25.12-.09.25-.17.37-.25,0,.01.02.03.03.04-.24.15-.47.32-.73.44-.46.22-.94.4-1.41.6-.07.03-.14.09-.23,0-.03-.02-.11,0-.16.01-.07,0-.14,0-.2,0,0,0,0,0,0-.01Z"/>
      <path class="cls-3" d="m2.76,12.41c-.06.13-.13.25-.19.38,0,0-.02,0-.02-.01.02-.24.04-.48.07-.72,0,0,.01,0,.02,0v.44s.03,0,.04.01c.06-.16.12-.32.19-.47.02-.05.07-.09.1-.13.03.05.08.09.08.14-.03.37-.06.73-.09,1.1,0,.02-.02.04-.02.07-.01,0-.03,0-.04,0-.02-.26-.04-.53-.05-.79h-.06Z"/>
      <path class="cls-3" d="m11.68,3.02c-.01.69-.11,1.38-.22,2.07-.08-.36.08-.71.07-1.08-.06.02-.12.03-.17.06-.05.03-.07.09-.13.13.05-.24.09-.48.28-.66.04-.04.09-.09.1-.15.02-.13.01-.26.02-.38h.04Z"/>
      <path class="cls-3" d="m3.05,9.48c.08-.2.16-.41.25-.61.09-.2.19-.39.28-.59.09-.19.28-.33.29-.53.21-.24.42-.48.62-.71,0,0,0,0,.01,0-.04.07-.07.13-.12.2-.04.07-.1.13-.14.19-.15.2-.31.39-.43.61-.22.39-.4.8-.6,1.2-.04.08-.09.16-.13.25,0,0-.02-.01-.03-.02Z"/>
      <path class="cls-3" d="m11.42,7.72s-.09.06-.1.1c-.13.28-.25.56-.38.85l-.04-.02c.19-.54.37-1.08.56-1.62,0,0,.01,0,.02,0,0,.06-.02.12-.03.18h.02c.09-.23.18-.47.28-.7,0,0,.01,0,.02,0-.01.06-.02.11-.04.17-.08.24-.18.47-.25.71-.03.08,0,.18,0,.26,0,0-.02-.02-.05-.05,0,0-.02.02-.03.03l.03.09Z"/>
      <path class="cls-3" d="m8.59,11.7c-.49.57-.97,1.14-1.46,1.72-.01-.01-.03-.02-.04-.03.08-.1.16-.2.24-.3,0,0-.01-.01-.02-.02-.17.14-.34.28-.51.42v-.02c.59-.59,1.18-1.19,1.78-1.78,0,0,0,0,0,0Z"/>
      <path class="cls-3" d="m5.01,6.66s-.05-.06-.08-.09c-.05.05-.08.1-.13.13-.04.03-.09.03-.13.05,0-.05-.02-.12,0-.16.05-.11.12-.21.2-.3.05-.05.12-.1.19-.1.03,0,.07.1.11.15.01-.01.05-.05.09-.08q0,.1-.24.41Z"/>
      <path class="cls-3" d="m4.78,7.85c-.13.2-.28.39-.39.61-.1.19-.15.4-.23.61.01,0-.01,0-.03,0,0,.06,0,.13,0,.22-.06-.04-.09-.06-.12-.09,0,0-.02.02-.03.02.02.04.05.07.09.13-.21-.11-.17.14-.3.18.25-.62.61-1.16.98-1.7.01,0,.02.01.03.02Z"/>
      <path class="cls-3" d="m8.98,1.84c-.39.38-.77.77-1.16,1.15.34-.43.68-.87,1.16-1.15Z"/>
      <path class="cls-3" d="m2.67,14.8c-.1-.1-.15-.99-.07-1.41.04.49.08.95.11,1.41-.02,0-.03,0-.05,0Z"/>
      <path class="cls-3" d="m5.47,6.25c-.13.22-.26.45-.4.68.06.01.09.02.16.03-.09.11-.17.2-.25.29,0,0-.02,0-.03-.01l.04-.12s-.01,0-.02-.01c-.05.06-.1.11-.16.17-.01-.01-.03-.02-.04-.03.21-.34.43-.68.64-1.02.01,0,.03.01.04.02Z"/>
      <path class="cls-3" d="m2.36,12.67c.03-.41.06-.83.09-1.24.02,0,.04,0,.06,0-.01.1-.03.21-.04.31-.01.13-.07.31,0,.4.09.14,0,.24.01.35,0,.06-.04.12-.06.18h-.05Z"/>
      <path class="cls-3" d="m8.09,3.01c-.25.34-.52.69-.8,1.06.02-.2.55-.89.8-1.06Z"/>
      <path class="cls-3" d="m5.38,14c.44-.24.88-.48,1.32-.73,0,.01.01.02.02.04-.44.25-.87.49-1.31.74,0-.02-.02-.03-.03-.05Z"/>
      <path class="cls-3" d="m12.33,4c-.01.43-.03.85-.04,1.28-.02,0-.04,0-.06,0,.02-.42.04-.85.05-1.27.02,0,.03,0,.05,0Z"/>
      <path class="cls-3" d="m12.02,6.94c-.14.35-.15.74-.4,1.05.12-.35.24-.71.36-1.06h.04Z"/>
      <path class="cls-3" d="m5.56,5.66c-.13.16-.23.33-.43.43.04-.25.3-.5.43-.43Z"/>
      <path class="cls-3" d="m9.16,12.07c.17-.23.33-.47.51-.71-.09.31-.19.59-.51.71Z"/>
      <path class="cls-3" d="m3.19,10.85c.18-.36.37-.72.55-1.08.02,0,.03.02.05.02-.18.36-.37.72-.55,1.08-.02,0-.03-.02-.05-.02Z"/>
      <path class="cls-3" d="m12.07,2.56c.04-.11.06-.19.09-.28.04.03.12.06.12.09.01.09,0,.19-.01.28-.06-.03-.11-.05-.2-.09Z"/>
      <path class="cls-3" d="m6.73,3.93c-.14.2-.19.48-.52.54.08-.11.14-.28.22-.29.19-.01.18-.2.3-.25Z"/>
      <path class="cls-3" d="m11.42,6.53c.03-.06.06-.12.08-.17.02-.02.04-.04.06-.06,0,0,.02,0,.03.01-.1.26-.21.53-.31.79-.01,0-.03-.01-.04-.02.06-.18.12-.37.18-.55Z"/>
      <path class="cls-2" d="m4.71,7.14s0-.09.01-.13c-.05-.02-.09-.03-.16-.06.15-.07.28-.12.4-.17-.07.12-.14.25-.21.38-.01,0-.03,0-.04-.01Z"/>
      <path class="cls-3" d="m4.21,7.74c-.15.23-.3.46-.44.69-.02-.01-.04-.02-.05-.04.15-.23.31-.46.46-.69.01.01.03.02.04.03Z"/>
      <path class="cls-3" d="m11.29,8.86c-.17.33-.35.65-.5.96.14-.31.29-.65.44-.98.02,0,.04.02.06.03Z"/>
      <path class="cls-3" d="m10.16,10.79c-.12.19-.24.37-.35.56-.01,0-.03-.02-.04-.03.07-.22.24-.37.34-.57.02.01.04.02.05.03Z"/>
      <path class="cls-3" d="m10.4,10.35c.09-.23.19-.46.28-.69,0,0,.02,0,.02.01-.1.23-.2.46-.3.68,0,0,0,0,0,0Z"/>
      <path class="cls-3" d="m8.33,12.26c-.15.2-.31.41-.46.61,0,.01-.02.01-.07,0,.17-.21.33-.42.5-.62,0,0,.02.01.03.02Z"/>
      <path class="cls-3" d="m12.33,2.69c0,.13,0,.26,0,.42-.15-.16-.16-.3-.05-.42.02,0,.03,0,.05,0Z"/>
      <path class="cls-3" d="m6.08,5.06c-.09.23-.17.46-.41.59l.41-.59h0Z"/>
      <path class="cls-3" d="m9.2,1.76c.15-.13.31-.25.46-.38.01.01.02.03.03.04l-.45.38s-.03-.03-.04-.04Z"/>
      <path class="cls-3" d="m4.29,14.44l-.52.34s-.02-.03-.03-.05c.18-.11.35-.22.53-.34,0,.01.01.02.02.04Z"/>
      <path class="cls-3" d="m7.04,4.49c-.12.17-.24.33-.36.5-.01,0-.03-.02-.04-.03.12-.17.24-.34.35-.51.02.01.03.02.05.03Z"/>
      <path class="cls-3" d="m6.03,5.61c.1-.1.2-.19.31-.29l.05.05c-.1.09-.21.19-.31.28-.01-.02-.03-.03-.04-.05Z"/>
      <path class="cls-3" d="m6.09,5.06c.11-.2.22-.39.32-.59l.06.04c-.13.18-.26.37-.39.55,0,0,0,0,0,0Z"/>
      <path class="cls-3" d="m11.87,4.58c0-.09,0-.18.01-.29.14.06.14.17-.01.29Z"/>
      <path class="cls-3" d="m11.86,5s.02.07.01.09c-.01.06-.04.12-.06.18-.02-.02-.06-.04-.06-.05.01-.08-.04-.18.1-.22Z"/>
      <path class="cls-3" d="m7.03,3.13c.13.12.12.16,0,.32-.01,0-.03,0-.04,0,.01-.09.02-.19.04-.32Z"/>
      <path class="cls-3" d="m3.09,10.15c-.08.14-.15.28-.23.42-.01,0-.02,0-.03-.01.06-.14.13-.29.19-.43.02,0,.05.02.07.02Z"/>
      <path class="cls-3" d="m8.92,11.41s-.02.1-.04.14c-.02.02-.08,0-.12.01.03-.06.05-.12.08-.18.03,0,.06.02.08.03Z"/>
      <path class="cls-3" d="m11.26,3.63c.03-.2.06-.4.09-.6.01,0,.02,0,.03,0-.03.2-.06.4-.08.6-.01,0-.03,0-.04,0Z"/>
      <path class="cls-3" d="m7.15,3.16c.03-.07.05-.14.08-.2,0-.02.05-.02.07-.03,0,.03.03.06.02.08-.05.06-.1.11-.16.17,0,0,0-.01-.01-.02Z"/>
      <path class="cls-3" d="m7.17,10.05c-.26-.16-.55-.33-.81-.49.17-.04.73.29.81.49Z"/>
      <path class="cls-3" d="m6.03,12.99c-.21-.22-.42-.43-.63-.65.01-.01.02-.02.03-.03.21.21.43.42.64.64-.01.01-.03.03-.04.04Z"/>
      <path class="cls-3" d="m6.44,9.39c.23.12.46.24.7.35,0,0,0,.02-.01.02-.23-.12-.46-.25-.69-.37,0,0,0,0,0,0Z"/>
      <path class="cls-3" d="m6.13,12.75c-.16-.17-.32-.34-.48-.5,0,0,.02-.02.03-.03.16.17.32.33.48.5-.01.01-.02.02-.03.03Z"/>
      <path class="cls-3" d="m6.21,10.81c.13.11.27.21.4.32-.01.02-.03.03-.04.05-.13-.11-.26-.23-.39-.34,0,0,.02-.02.02-.03Z"/>
      <path class="cls-3" d="m8.18,10.59c-.14-.11-.29-.21-.43-.32,0,0,.01-.02.02-.03.15.1.29.2.44.3,0,.01-.02.03-.03.04Z"/>
      <path class="cls-3" d="m6.82,11.63c.13.11.26.22.38.32,0,.01-.02.02-.03.03-.12-.11-.25-.22-.37-.33,0,0,.01-.02.02-.02Z"/>
      <path class="cls-3" d="m7.93,10.06c.13.1.26.19.38.29-.01.01-.02.03-.03.04-.12-.1-.25-.2-.37-.3,0-.01.01-.02.02-.03Z"/>
      <path class="cls-3" d="m9.08,5.23c-.07-.1-.15-.21-.22-.32,0-.01,0-.02.01-.03l1.03.48s0,.02,0,.02c-.27-.05-.53-.1-.81-.15Z"/>
      <path class="cls-3" d="m10.05,6.14c-.42-.15-.83-.29-1.25-.44.21-.02,1.1.29,1.25.44Z"/>
      <path class="cls-3" d="m9.7,5.81c-.15-.04-.3-.08-.45-.13-.07-.02-.15-.05-.1-.15.04.03.08.07.12.09.16.05.32.09.48.13.04.01.09.03.12.08-.04,0-.07,0-.11,0-.02,0-.05-.02-.07-.03Z"/>
      <path class="cls-3" d="m10.36,4.78c-.29-.09-.58-.17-.87-.26,0-.01,0-.02.01-.04.29.08.59.13.86.3Z"/>
      <path class="cls-3" d="m10.01,4.38c.13.03.25.05.38.07-.03.04-.07.07-.11.12-.09-.05-.24-.02-.26-.19Z"/>
      <path class="cls-3" d="m9.5,4.1l.86.24s0,.02,0,.04c-.29-.08-.58-.16-.87-.24,0-.01,0-.03.01-.04Z"/>
      <path class="cls-3" d="m9.1,4.26c.27.05.54.1.81.15v.04c-.28-.05-.55-.1-.82-.14,0-.01,0-.03,0-.04Z"/>
      <path class="cls-2" d="m9.7,5.81s.05.02.07.03c.17.08.34.16.5.25l-.02.03c-.19-.09-.39-.17-.58-.26,0-.02.02-.03.03-.05Z"/>
      <path class="cls-2" d="m11.99,11.71c.34,0,.69.02,1.03.03,0,.03,0,.05,0,.08-.34,0-.69-.04-1.03-.06,0-.02,0-.03,0-.05Z"/>
      <path class="cls-2" d="m11.98,12.21l-.48-.02s0-.03,0-.04c.16,0,.32.01.49.02,0,.02,0,.03,0,.05Z"/>
      <path class="cls-2" d="m13.97,10.52l-1.13-.08s0-.03,0-.05c.38.02.75.04,1.13.06,0,.02,0,.05,0,.07Z"/>
      <path class="cls-3" d="m6.47,7.94c-.18-.08-.37-.16-.55-.24,0-.02.02-.03.02-.05.18.08.36.17.54.25,0,.01,0,.02-.01.04Z"/>
      <path class="cls-3" d="m6.97,6.29c-.17-.04-.34-.08-.5-.12,0-.01,0-.02,0-.04.17.03.34.07.51.1,0,.02,0,.04-.01.05Z"/>
      <path class="cls-3" d="m9.97,7.12c-.43-.18-.85-.35-1.28-.53,0-.01,0-.02.01-.04.43.17.87.3,1.26.56Z"/>
      <path class="cls-3" d="m8.9,7.92c.26.13.52.27.77.4,0,.01-.01.03-.02.04-.26-.13-.52-.27-.77-.4,0-.01.01-.03.02-.04Z"/>
      <path class="cls-3" d="m8.81,7.97c.23.12.46.25.7.37,0,.01-.02.03-.02.04-.23-.13-.46-.25-.69-.38v-.04Z"/>
      <path class="cls-2" d="m2.56,7.76c-.21.12-.46.05-.68.14,0-.02,0-.03-.01-.05.22-.04.45-.09.67-.13,0,.02.01.03.02.05Z"/>
      <path class="cls-2" d="m.64,10.74c-.1-.08-.2-.15-.29-.23-.12-.11-.22-.24-.33-.36.01-.01.03-.03.04-.04.18.11.36.24.55.33.2.09.41.15.62.23,0,.02-.01.04-.02.06l-.85-.29s0,.01-.01.02c.25.15.5.29.76.44v.02c-.16-.06-.31-.11-.47-.17,0,0,0,0,0,0Z"/>
      <path class="cls-2" d="m.88,10.19c.04.07.07.14.12.24-.1-.04-.2-.08-.3-.12-.01.02-.03.05-.05.07-.02-.02-.03-.05-.05-.07-.03-.03-.06-.07-.08-.07-.11.03-.11.03-.14-.07-.02-.05-.04-.1-.06-.15.08-.1.13.24.22.04.03.04.07.08.11.13,0-.04,0-.08,0-.12.06.02.13.05.22.08-.07.02-.1.03-.14.04.03.04.05.07.08.12.04-.06.06-.09.08-.12,0,0,0,0,0,0Z"/>
      <path class="cls-2" d="m2.1,7.02c-.24.07-.48.14-.72.21,0-.01,0-.03-.01-.04.24-.07.48-.14.72-.22l.02.05Z"/>
      <path class="cls-3" d="m4.75,9.24s.07-.05.09-.04c.23.07.46.15.7.23,0,0,.01.02,0,.02-.26-.07-.53-.14-.79-.21,0,0,0,0,0,0Z"/>
      <path class="cls-2" d="m1.17,11.74c-.09-.05-.18-.1-.28-.16.01-.02.02-.04.03-.05l.28.15s-.02.04-.04.06Z"/>
    </g>
  </g>
</svg>