<svg xmlns="http://www.w3.org/2000/svg" xmlns:xlink="http://www.w3.org/1999/xlink" width="160" zoomAndPan="magnify" viewBox="0 0 120 119.999999" height="160" preserveAspectRatio="xMidYMid meet" version="1.0"><defs><g/><clipPath id="ccf7e9f898"><path d="M 2.398438 19.546875 L 117.59375 19.546875 L 117.59375 100.515625 L 2.398438 100.515625 Z M 2.398438 19.546875 " clip-rule="nonzero"/></clipPath><clipPath id="94546f71ab"><path d="M 2.398438 19.546875 L 117.59375 19.546875 L 117.59375 100.515625 L 2.398438 100.515625 Z M 2.398438 19.546875 " clip-rule="nonzero"/></clipPath></defs><g clip-path="url(#ccf7e9f898)"><path fill="#ffffff" d="M 2.460938 86.921875 C 2.59375 86.300781 3.027344 85.898438 3.558594 85.625 C 3.046875 85.5625 3.023438 84.894531 3.542969 84.804688 C 5.5625 84.445312 6.5625 82.703125 7.351562 81 C 8.28125 78.992188 9.546875 77.144531 10.820312 75.347656 C 13.414062 71.683594 16.421875 67.71875 20.082031 65.074219 C 24.160156 62.132812 29.273438 61.050781 33.078125 57.664062 C 34.710938 56.210938 36.050781 54.511719 37.800781 53.148438 C 39.855469 51.539062 42.140625 50.234375 44.476562 49.082031 C 54.097656 44.34375 64.96875 43.777344 75.316406 41.664062 C 76.484375 41.425781 77.660156 41.179688 78.832031 40.941406 C 80.34375 40.445312 81.851562 39.925781 83.40625 39.535156 C 86.199219 38.832031 88.929688 38.128906 91.796875 37.761719 C 94.242188 37.445312 96.730469 37.398438 99.179688 37.753906 C 100.929688 38.007812 103.023438 38.523438 104.375 39.789062 C 104.46875 39.691406 104.589844 39.628906 104.746094 39.632812 C 109.828125 39.699219 111.433594 31.382812 112.429688 27.617188 C 113 25.464844 112.753906 18.597656 116.566406 19.652344 C 118.496094 20.1875 117.777344 22.691406 117.726562 24.222656 C 117.632812 26.953125 117.222656 29.703125 116.578125 32.355469 C 115.570312 36.542969 113.242188 41.957031 108.839844 43.535156 C 109.0625 43.703125 109.273438 43.882812 109.507812 44.042969 C 109.730469 44.195312 109.695312 44.496094 109.5 44.597656 C 111.277344 49.332031 108.511719 54.398438 105.921875 58.316406 C 104.449219 60.542969 102.71875 62.605469 101.113281 64.738281 C 99.328125 67.113281 97.6875 69.605469 95.972656 72.035156 C 92.730469 76.644531 89.242188 81.164062 84.996094 84.890625 C 81.269531 88.160156 77.144531 90.914062 72.75 93.195312 C 55.25 102.28125 33.820312 102.855469 15.710938 95.226562 C 13.398438 94.253906 11.148438 93.238281 8.777344 92.398438 C 7 91.765625 5.078125 91.191406 3.613281 89.960938 C 2.734375 89.226562 2.210938 88.050781 2.460938 86.921875 " fill-opacity="1" fill-rule="nonzero"/></g><path fill="#040606" d="M 53.875 94.628906 C 56.300781 94.117188 58.769531 93.917969 61.1875 93.335938 C 64.109375 92.640625 66.925781 91.527344 69.617188 90.207031 C 74.652344 87.742188 78.699219 83.761719 83.484375 80.882812 C 83.613281 80.804688 83.730469 80.992188 83.609375 81.078125 C 78.828125 84.5 74.792969 88.617188 69.46875 91.261719 C 64.980469 93.492188 58.976562 95.71875 53.886719 94.902344 C 53.753906 94.878906 53.738281 94.65625 53.875 94.628906 " fill-opacity="1" fill-rule="nonzero"/><path fill="#040606" d="M 97.210938 62.542969 C 100.246094 59.230469 103.683594 56.066406 105.402344 51.816406 C 105.445312 51.707031 105.613281 51.777344 105.589844 51.886719 C 104.613281 55.996094 101.625 59.042969 98.921875 62.105469 C 95.660156 65.796875 92.589844 69.710938 89.128906 73.210938 C 89 73.339844 88.761719 73.191406 88.859375 73.019531 C 91.121094 69.175781 94.214844 65.816406 97.210938 62.542969 " fill-opacity="1" fill-rule="nonzero"/><g clip-path="url(#94546f71ab)"><path fill="#040606" d="M 17.035156 86.15625 C 16.707031 85.636719 16.46875 85.070312 16.246094 84.5 C 15.726562 84.160156 15.339844 83.265625 14.976562 82.796875 C 14.699219 82.429688 14.375 82.101562 13.988281 81.851562 C 13.734375 81.6875 13.460938 81.722656 13.195312 81.65625 C 11.875 83.113281 10.273438 84.730469 8.558594 85.625 C 11.664062 85.929688 14.765625 86.875 17.890625 87.082031 C 17.5625 86.835938 17.269531 86.535156 17.035156 86.15625 Z M 24.03125 83.601562 C 23.210938 82.625 22.515625 81.546875 21.949219 80.679688 C 21.609375 80.15625 21.292969 79.5625 21.0625 78.945312 C 19.8125 78.90625 18.617188 78.671875 17.40625 79.1875 C 14.992188 80.21875 16.621094 82.574219 17.246094 84.222656 C 17.960938 86.121094 19.214844 87.007812 21.285156 86.863281 C 23.25 86.726562 24.234375 85.316406 24.03125 83.601562 Z M 28.355469 86.191406 C 27.023438 86.183594 25.855469 85.460938 24.84375 84.476562 C 24.898438 85.542969 24.230469 86.445312 23.242188 87.046875 C 25.382812 86.960938 27.519531 86.816406 29.652344 86.609375 C 29.597656 86.402344 29.628906 86.160156 29.714844 85.914062 C 29.257812 86.089844 28.785156 86.195312 28.355469 86.191406 Z M 31.125 83.3125 C 30.996094 83.203125 30.871094 83.085938 30.773438 82.949219 C 30.535156 82.632812 30.476562 82.203125 30.398438 81.828125 C 30.152344 80.691406 29.585938 79.660156 29.046875 78.644531 C 28.511719 77.632812 27.9375 76.445312 27.765625 75.28125 C 26.410156 74.382812 24.882812 74.277344 23.351562 74.941406 C 22.367188 75.371094 21.441406 76.003906 21.71875 77.1875 C 21.9375 78.105469 22.191406 78.941406 22.632812 79.777344 C 23.429688 81.292969 24.785156 83.046875 26.101562 84.140625 C 27.890625 85.628906 30.371094 85.527344 31.125 83.3125 Z M 37.351562 85.523438 C 37.121094 85.234375 36.996094 84.847656 36.832031 84.527344 C 36.597656 84.070312 36.300781 83.753906 35.882812 83.558594 C 35.1875 83.972656 34.410156 84.089844 33.539062 84.089844 C 33.273438 84.089844 32.988281 84.0625 32.707031 84.007812 C 32.285156 84.132812 31.890625 84.285156 31.515625 84.542969 C 31.324219 84.835938 31.070312 85.101562 30.773438 85.328125 C 30.589844 85.660156 30.46875 86.039062 30.402344 86.390625 C 30.390625 86.449219 30.382812 86.492188 30.375 86.542969 C 32.585938 86.3125 34.792969 86.027344 36.992188 85.703125 C 37.128906 85.683594 37.265625 85.65625 37.398438 85.636719 C 37.378906 85.601562 37.371094 85.5625 37.351562 85.523438 Z M 36.546875 83.042969 C 36.515625 83.074219 36.476562 83.101562 36.441406 83.132812 C 36.730469 83.300781 36.972656 83.566406 37.164062 83.835938 C 37.167969 83.84375 37.175781 83.855469 37.183594 83.867188 C 37.25 83.34375 37.390625 82.824219 37.5625 82.367188 C 37.222656 82.5625 36.855469 82.742188 36.546875 83.042969 Z M 38.238281 81.09375 C 38.28125 81.03125 38.335938 81.019531 38.390625 81.027344 C 38.464844 80.957031 38.546875 80.886719 38.628906 80.832031 C 38.378906 80.527344 38.171875 80.136719 37.972656 79.640625 C 37.660156 78.855469 37.390625 78.054688 37.070312 77.273438 C 36.722656 76.433594 36.128906 75.832031 35.558594 75.191406 C 34.605469 74.519531 33.539062 73.59375 33.007812 72.542969 C 31.691406 72.027344 29.863281 72.085938 29.027344 73.210938 C 27.773438 74.898438 29.734375 77.613281 30.503906 79.105469 C 30.855469 79.789062 31.125 80.492188 31.355469 81.21875 C 31.765625 82.527344 32.160156 82.945312 33.609375 83.105469 C 34.710938 83.230469 35.441406 82.78125 36.285156 82.152344 C 36.835938 81.742188 37.851562 81.683594 38.238281 81.09375 Z M 45.714844 82.335938 C 45.378906 81.949219 45.03125 81.695312 44.5 81.546875 C 43.285156 81.816406 41.824219 81.707031 40.691406 81.679688 C 40.117188 81.664062 39.675781 81.570312 39.3125 81.390625 C 38.246094 81.902344 38.050781 84.519531 38.261719 85.5 C 40.964844 85.066406 43.644531 84.535156 46.289062 83.855469 C 45.914062 83.34375 45.742188 82.832031 45.714844 82.335938 Z M 45.3125 81.289062 C 45.488281 81.375 45.648438 81.476562 45.785156 81.601562 C 45.855469 81.300781 45.976562 81.011719 46.144531 80.734375 C 45.910156 80.96875 45.625 81.152344 45.3125 81.289062 Z M 46.265625 79.476562 C 47.414062 75.917969 44.128906 71.503906 41.34375 69.675781 C 39.339844 68.367188 36.15625 68.222656 34.148438 69.609375 C 31.648438 71.335938 34.582031 72.917969 35.808594 74.492188 C 37.617188 75.554688 38.058594 77.738281 38.832031 79.660156 C 39.472656 81.246094 41.339844 80.777344 42.710938 80.90625 C 44.238281 81.054688 45.476562 80.636719 46.265625 79.476562 Z M 46.777344 79.9375 C 47.425781 79.277344 48.292969 78.75 49.183594 78.4375 C 48.359375 78.167969 47.542969 77.691406 47.027344 77.023438 C 47.191406 78.046875 47.1875 79.121094 46.777344 79.9375 Z M 54.324219 76.902344 C 55.578125 76.402344 57.28125 75.679688 57.066406 74.054688 C 56.859375 72.453125 55.246094 71.015625 54.339844 69.753906 C 52.488281 67.175781 50.867188 63.9375 47.660156 62.863281 C 45.816406 62.242188 43.703125 63.492188 42.554688 64.871094 C 41.566406 66.058594 41.769531 67.648438 42.167969 69.03125 C 44.1875 70.382812 45.640625 72.550781 46.449219 74.816406 C 46.523438 75.023438 46.597656 75.253906 46.675781 75.503906 C 46.773438 75.484375 46.890625 75.53125 46.933594 75.664062 C 47.925781 78.75 52.191406 77.753906 54.324219 76.902344 Z M 60.386719 74.164062 C 60.148438 74.125 59.824219 74.144531 59.527344 74.113281 C 59.242188 74.273438 58.949219 74.398438 58.644531 74.453125 C 58.632812 74.457031 58.621094 74.453125 58.605469 74.457031 C 58.019531 75.730469 56.722656 76.417969 55.902344 77.535156 C 55.511719 78.0625 55.222656 78.664062 55.003906 79.28125 C 54.730469 80.054688 54.90625 80.386719 55.304688 80.828125 C 57.484375 79.902344 59.609375 78.855469 61.679688 77.707031 C 61.515625 76.777344 61.511719 75.757812 61.492188 74.796875 C 61.230469 74.460938 60.878906 74.242188 60.386719 74.164062 Z M 61.691406 72.332031 C 61.300781 72.671875 60.894531 73.070312 60.472656 73.429688 C 60.621094 73.476562 60.761719 73.527344 60.867188 73.582031 C 61.105469 73.695312 61.300781 73.851562 61.472656 74.023438 C 61.460938 73.386719 61.535156 72.851562 61.691406 72.332031 Z M 68.25 69.410156 C 68.253906 69.226562 68.265625 69.042969 68.300781 68.871094 C 68.152344 68.941406 68.003906 68.996094 67.859375 69.039062 C 68 69.148438 68.128906 69.273438 68.25 69.410156 Z M 75.714844 67.515625 C 75.492188 66.925781 74.894531 66.386719 74.417969 66 C 74.359375 65.953125 74.300781 65.917969 74.246094 65.878906 C 74.226562 65.875 74.210938 65.875 74.195312 65.867188 C 73.976562 65.800781 73.777344 65.6875 73.582031 65.558594 C 72.804688 65.347656 72.085938 65.710938 71.402344 66.199219 C 70.886719 67.144531 69.917969 67.84375 69.042969 68.429688 C 69.058594 68.773438 69.035156 69.121094 69.082031 69.46875 C 69.167969 70.109375 69.28125 70.746094 69.335938 71.390625 C 69.375 71.90625 69.316406 72.683594 68.996094 73.195312 C 71.347656 71.605469 73.601562 69.894531 75.820312 68.136719 C 75.796875 67.933594 75.792969 67.726562 75.714844 67.515625 Z M 71.738281 65.257812 C 72.09375 65.105469 72.476562 65.019531 72.875 65 C 72.792969 64.929688 72.714844 64.859375 72.636719 64.792969 C 72.351562 64.546875 72.054688 64.351562 71.753906 64.167969 C 71.796875 64.527344 71.796875 64.890625 71.738281 65.257812 Z M 76.195312 64.578125 C 78.503906 62.707031 77.953125 59.433594 76.804688 57.121094 C 75.828125 55.152344 74.863281 52.953125 73.167969 51.488281 C 71.765625 50.273438 70.039062 51.128906 68.867188 52.199219 C 67.710938 53.261719 67.414062 54.714844 67.109375 56.179688 C 67.09375 56.253906 67.050781 56.28125 67 56.296875 C 68.492188 57.710938 69.710938 59.613281 70.492188 61.015625 C 70.871094 61.695312 71.261719 62.417969 71.511719 63.171875 C 73.265625 63.578125 74.089844 66.285156 76.195312 64.578125 Z M 81.226562 63.6875 C 81.121094 63.160156 81.019531 62.792969 80.597656 62.429688 C 79.910156 62.488281 79.296875 62.296875 78.859375 61.660156 C 78.714844 62.738281 78.277344 63.773438 77.40625 64.671875 C 76.84375 65.257812 76.21875 65.738281 75.503906 65.910156 C 75.96875 66.332031 76.46875 66.910156 76.703125 67.441406 C 78.226562 66.21875 79.738281 64.980469 81.246094 63.746094 C 81.242188 63.726562 81.230469 63.710938 81.226562 63.6875 Z M 81.558594 61.183594 C 82.53125 60.683594 83.707031 60.21875 84.363281 59.328125 C 84.800781 58.734375 84.917969 57.980469 84.859375 57.1875 C 84.839844 57.160156 84.816406 57.136719 84.796875 57.105469 C 84.710938 56.976562 84.738281 56.847656 84.816406 56.765625 C 84.644531 55.554688 84.136719 54.304688 83.769531 53.425781 C 83.078125 51.761719 82.019531 49.949219 80.472656 48.960938 C 78.191406 47.496094 76.273438 50.539062 74.65625 51.71875 C 75.917969 52.9375 76.851562 54.691406 77.546875 56.027344 C 78.265625 57.414062 78.835938 58.992188 78.902344 60.539062 C 79.265625 60.875 79.574219 61.15625 79.910156 61.320312 C 80.136719 61.328125 80.371094 61.382812 80.59375 61.472656 C 80.871094 61.460938 81.179688 61.378906 81.558594 61.183594 Z M 87.28125 58.894531 C 87.195312 58.660156 87.042969 58.488281 86.886719 58.320312 C 86.515625 58.339844 86.148438 58.265625 85.789062 58.0625 C 85.660156 59.28125 85.09375 60.378906 83.789062 61.132812 C 83.105469 61.527344 82.339844 61.945312 81.601562 62.203125 C 81.828125 62.46875 81.980469 62.78125 82.03125 63.109375 C 83.769531 61.699219 85.515625 60.300781 87.300781 58.945312 C 87.292969 58.925781 87.285156 58.910156 87.28125 58.894531 Z M 75.46875 47.386719 C 75.949219 47.835938 76.253906 48.441406 76.28125 49.042969 C 77.457031 48.074219 78.878906 47.523438 80.378906 48.089844 C 80.519531 48.144531 80.660156 48.207031 80.796875 48.277344 C 80.898438 47.992188 81.023438 47.714844 81.164062 47.4375 C 81.175781 47.101562 81.175781 46.78125 80.921875 46.476562 C 80.699219 46.214844 80.382812 46.109375 80.066406 46.003906 C 79.53125 46.242188 78.992188 46.445312 78.359375 46.441406 C 76.945312 46.429688 75.511719 46.476562 74.074219 46.5625 C 74.585938 46.746094 75.0625 47.015625 75.46875 47.386719 Z M 66.613281 48.875 C 67.292969 49.367188 68.230469 50.511719 68.410156 51.539062 C 69.328125 50.757812 70.46875 50.257812 71.5625 50.277344 C 72.597656 50.292969 73.5 50.730469 74.28125 51.382812 C 74.605469 50.859375 75 50.324219 75.453125 49.832031 C 75.535156 49.503906 75.601562 49.179688 75.53125 48.828125 C 75.417969 48.28125 74.847656 47.910156 74.410156 47.636719 C 73.800781 47.253906 73.128906 46.945312 72.449219 46.679688 C 69.789062 46.902344 67.117188 47.289062 64.480469 47.847656 C 65.277344 48.0625 66.035156 48.453125 66.613281 48.875 Z M 58.085938 51.652344 C 58.46875 52.417969 58.769531 53.238281 59.277344 53.929688 C 59.738281 54.550781 60.269531 54.683594 60.894531 54.800781 C 61.578125 54.503906 62.3125 54.339844 63.019531 54.347656 C 64.34375 54.363281 65.585938 55.050781 66.695312 56.023438 C 66.347656 54.765625 66.765625 53.46875 67.566406 52.425781 C 67.480469 51.96875 67.417969 51.519531 67.230469 51.074219 C 66.949219 50.417969 66.421875 49.882812 65.867188 49.453125 C 64.660156 48.523438 63.355469 48.628906 61.972656 48.4375 C 60.238281 48.882812 58.527344 49.40625 56.855469 50.007812 C 57.402344 50.441406 57.84375 51.175781 58.085938 51.652344 Z M 54.332031 57.921875 C 54.375 57.921875 54.417969 57.917969 54.460938 57.917969 C 54.832031 57.921875 55.199219 57.96875 55.554688 58.046875 C 55.945312 58.003906 56.367188 58.023438 56.742188 58.023438 C 57.265625 58.023438 57.695312 57.929688 58.117188 57.714844 C 58.378906 56.777344 59.027344 55.960938 59.863281 55.371094 C 59.179688 55.136719 58.558594 54.554688 58.183594 53.957031 C 57.734375 53.246094 57.410156 52.476562 57.015625 51.734375 C 56.664062 51.066406 56.28125 50.765625 55.765625 50.417969 C 53.949219 51.113281 52.183594 51.910156 50.488281 52.804688 C 52.78125 53.328125 54.957031 55.664062 54.332031 57.921875 Z M 57.992188 58.457031 C 57.761719 58.558594 57.507812 58.621094 57.242188 58.648438 C 57.503906 58.785156 57.761719 58.929688 58.015625 59.09375 C 57.984375 58.875 57.980469 58.664062 57.992188 58.457031 Z M 63.808594 69.304688 C 64.28125 68.980469 64.808594 68.738281 65.34375 68.636719 C 65.300781 68.613281 65.253906 68.589844 65.207031 68.5625 C 64.742188 68.285156 64.246094 67.929688 63.8125 67.511719 C 63.914062 68.121094 63.917969 68.722656 63.808594 69.304688 Z M 63.578125 66.53125 C 64.066406 67.046875 64.714844 67.460938 65.265625 67.828125 C 66.632812 68.730469 67.757812 68.085938 68.9375 67.214844 C 70.074219 66.378906 70.941406 65.429688 70.652344 63.929688 C 70.4375 62.835938 69.722656 61.695312 69.21875 60.714844 C 68.070312 58.488281 66.417969 56.164062 63.925781 55.394531 C 61.347656 54.597656 58.71875 57.027344 58.710938 59.542969 C 58.710938 59.5625 58.703125 59.570312 58.703125 59.585938 C 60.148438 60.707031 61.359375 62.222656 62.222656 63.636719 C 62.789062 64.566406 63.277344 65.546875 63.578125 66.53125 Z M 57.699219 74.867188 C 57.871094 74.722656 58.039062 74.578125 58.207031 74.425781 C 58.039062 74.375 57.878906 74.28125 57.738281 74.15625 C 57.757812 74.390625 57.738281 74.628906 57.699219 74.867188 Z M 57.25 72.617188 C 57.40625 72.796875 57.410156 72.855469 57.703125 73.28125 C 58.085938 73.84375 58.492188 73.859375 58.863281 73.664062 C 58.867188 73.660156 58.867188 73.65625 58.867188 73.652344 C 58.960938 73.484375 59.121094 73.390625 59.304688 73.339844 C 59.546875 73.113281 59.761719 72.851562 59.9375 72.664062 C 60.554688 72 61.265625 71.460938 61.925781 70.847656 C 64.222656 68.71875 62.085938 65.230469 60.785156 63.132812 C 59.332031 60.789062 57.730469 58.84375 54.789062 58.625 C 52.3125 58.441406 50.347656 60.558594 49.359375 62.605469 C 52.191406 64.074219 53.882812 67.949219 55.664062 70.320312 C 56.171875 71.003906 56.8125 71.777344 57.25 72.617188 Z M 45.429688 57.902344 C 47.09375 58.472656 48.707031 60.449219 48.5 62.269531 C 48.609375 62.304688 48.714844 62.332031 48.820312 62.371094 C 49.136719 60.28125 51.453125 58.425781 53.554688 58.007812 C 53.253906 56.617188 53.203125 55.535156 51.996094 54.535156 C 51.09375 53.792969 50.097656 53.703125 49.058594 53.589844 C 47.078125 54.734375 45.203125 56.050781 43.449219 57.515625 C 44.175781 57.542969 44.917969 57.726562 45.429688 57.902344 Z M 40.199219 63.464844 C 40.742188 64 41.144531 64.792969 41.375 65.644531 C 41.984375 63.808594 43.898438 62.417969 46.128906 62.085938 C 46.808594 61.980469 47.433594 62.015625 48.015625 62.140625 C 47.316406 60.984375 46.90625 59.882812 45.6875 59.082031 C 44.566406 58.351562 43.25 58.40625 42.042969 58.769531 C 40.855469 59.933594 39.789062 61.21875 38.617188 62.398438 C 39.210938 62.605469 39.789062 63.066406 40.199219 63.464844 Z M 31.367188 67.027344 C 31.519531 67.359375 31.75 67.640625 31.914062 67.957031 C 32.511719 68.449219 32.933594 69.105469 33.035156 69.910156 C 33.082031 69.832031 33.128906 69.753906 33.183594 69.675781 C 34.746094 67.441406 38.386719 67.304688 40.628906 68.199219 C 40.773438 68.257812 40.90625 68.332031 41.046875 68.398438 C 40.847656 67.261719 40.960938 66.191406 40.46875 65.058594 C 39.949219 63.863281 38.839844 62.898438 37.519531 63.390625 C 37.507812 63.394531 37.492188 63.394531 37.476562 63.394531 C 36.277344 64.253906 34.902344 64.703125 33.4375 65.105469 C 32.574219 65.339844 31.75 65.578125 30.953125 65.84375 C 31.09375 66.234375 31.191406 66.644531 31.367188 67.027344 Z M 17.222656 77.40625 C 17.128906 77.425781 17.050781 77.410156 16.980469 77.386719 C 16.226562 78.25 15.472656 79.117188 14.707031 79.960938 C 14.429688 80.269531 14.121094 80.621094 13.796875 80.988281 C 14.242188 81.082031 14.753906 81.378906 15.011719 81.578125 C 14.871094 80.933594 14.988281 80.335938 15.40625 79.605469 C 16.128906 78.335938 17.8125 77.816406 19.351562 77.941406 C 19.222656 77.859375 19.089844 77.78125 18.960938 77.707031 C 18.34375 77.351562 17.910156 77.253906 17.222656 77.40625 Z M 20.441406 78.132812 C 20.445312 78.140625 20.445312 78.144531 20.449219 78.152344 C 20.585938 78.195312 20.71875 78.242188 20.847656 78.292969 C 20.476562 76.886719 20.652344 75.457031 22.105469 74.601562 C 23.042969 74.046875 24.242188 73.664062 25.371094 73.683594 C 25.65625 73.542969 25.816406 73.339844 25.746094 72.929688 C 25.667969 72.476562 25.355469 72.042969 25.035156 71.730469 C 24.292969 71.011719 23.25 71.289062 22.320312 71.539062 C 20.761719 73.078125 19.300781 74.722656 17.859375 76.375 C 18.875 76.445312 19.914062 77.429688 20.441406 78.132812 Z M 29.730469 68 C 28.460938 67.8125 27.242188 68.347656 25.992188 68.320312 C 25.929688 68.367188 25.867188 68.40625 25.804688 68.453125 C 25.035156 69.042969 24.304688 69.679688 23.585938 70.335938 C 24.445312 70.382812 25.210938 70.785156 25.746094 71.453125 C 26.164062 71.96875 26.503906 72.65625 26.421875 73.335938 C 26.402344 73.519531 26.335938 73.671875 26.246094 73.792969 C 26.789062 73.914062 27.292969 74.15625 27.714844 74.546875 C 27.726562 73.660156 28.027344 72.816406 28.832031 72.113281 C 29.671875 71.371094 31.457031 71.234375 32.71875 71.742188 C 32.644531 71.394531 32.644531 71.039062 32.726562 70.679688 C 31.949219 69.359375 31.40625 68.25 29.730469 68 Z M 30.449219 66.015625 C 29.730469 66.269531 29.027344 66.550781 28.34375 66.886719 C 29.136719 66.839844 29.953125 66.964844 30.683594 67.246094 C 30.523438 66.84375 30.441406 66.414062 30.449219 66.015625 Z M 89.441406 54.417969 C 90.089844 52.703125 89.707031 50.765625 88.996094 49.144531 C 88.316406 47.59375 87.191406 46.164062 85.535156 45.625 C 83.601562 45 82.683594 46.53125 81.761719 47.859375 C 81.714844 47.949219 81.660156 48.03125 81.589844 48.105469 C 81.484375 48.253906 81.375 48.402344 81.261719 48.539062 C 83.179688 49.757812 84.554688 52.300781 85.214844 54.269531 C 85.535156 55.234375 85.785156 56.253906 85.816406 57.230469 C 87.449219 58.050781 88.84375 55.984375 89.441406 54.417969 Z M 90.429688 54.835938 C 90.183594 55.507812 89.84375 56.148438 89.390625 56.730469 C 88.859375 57.40625 88.261719 57.90625 87.644531 58.15625 C 87.722656 58.253906 87.804688 58.371094 87.867188 58.507812 C 88.523438 58.015625 89.183594 57.53125 89.851562 57.054688 C 90.714844 56.441406 91.570312 55.816406 92.421875 55.1875 C 91.734375 55.320312 91.039062 55.238281 90.429688 54.835938 Z M 88.9375 44.023438 C 87.890625 44.132812 86.839844 44.257812 85.796875 44.402344 C 84.320312 44.613281 82.878906 44.949219 81.464844 45.40625 C 81.300781 45.460938 81.144531 45.523438 80.988281 45.585938 C 81.179688 45.695312 81.355469 45.824219 81.492188 45.972656 C 81.613281 46.101562 81.714844 46.261719 81.785156 46.4375 C 82.640625 45.308594 83.867188 44.523438 85.398438 44.871094 C 86.097656 45.027344 86.765625 45.347656 87.375 45.769531 C 87.800781 45.152344 88.328125 44.519531 88.9375 44.023438 Z M 94.746094 47.527344 C 94.148438 46.105469 92.925781 43.71875 91.152344 43.8125 C 91.078125 43.820312 91 43.824219 90.925781 43.832031 C 89.699219 44.042969 88.792969 45.339844 87.796875 46.082031 C 89.015625 47.066406 89.964844 48.464844 90.449219 49.835938 C 90.953125 51.261719 91.011719 52.777344 90.640625 54.191406 C 92.117188 55.113281 93.796875 53.578125 94.613281 52.433594 C 95.667969 50.953125 95.398438 49.089844 94.746094 47.527344 Z M 97.570312 43.25 C 96.03125 43.347656 94.503906 43.519531 92.972656 43.65625 C 94.386719 44.617188 95.503906 46.597656 96 47.894531 C 96.632812 49.542969 96.460938 51.3125 95.605469 52.777344 C 96.308594 52.222656 97.011719 51.660156 97.703125 51.089844 C 97.984375 50.855469 98.328125 50.585938 98.695312 50.289062 C 99.285156 49.347656 100.34375 48.789062 100.554688 47.570312 C 100.882812 45.640625 99.183594 44.027344 97.570312 43.25 Z M 101.371094 47.890625 C 102.261719 46.925781 102.945312 45.882812 102.992188 44.863281 C 103.003906 44.558594 102.851562 44.320312 102.648438 44.113281 C 102.414062 43.875 102.515625 43.585938 102.726562 43.460938 C 101.566406 43.046875 100.203125 43.074219 98.921875 43.15625 C 100.121094 43.796875 101.109375 45.003906 101.402344 46.261719 C 101.535156 46.851562 101.507812 47.390625 101.371094 47.890625 Z M 68.417969 72.152344 C 68.429688 71.726562 68.390625 71.308594 68.347656 70.886719 C 68.1875 70.605469 68.03125 70.320312 67.808594 70.066406 C 67.515625 69.730469 67.144531 69.472656 66.84375 69.152344 C 66.730469 69.140625 66.621094 69.121094 66.507812 69.101562 C 65.75 69.191406 65.0625 69.375 64.367188 69.746094 C 63.976562 69.953125 63.660156 70.199219 63.398438 70.476562 C 63.253906 70.75 63.0625 71.007812 62.847656 71.265625 C 62.550781 71.867188 62.417969 72.566406 62.398438 73.339844 C 62.363281 74.480469 62.890625 76.042969 62.535156 77.226562 C 64.476562 76.121094 66.375 74.945312 68.230469 73.714844 C 68.148438 73.710938 68.070312 73.652344 68.082031 73.5625 C 68.140625 73.070312 68.40625 72.664062 68.417969 72.152344 Z M 54.105469 78.714844 C 54.082031 78.667969 54.058594 78.621094 54.035156 78.578125 C 53.949219 78.40625 53.820312 78.277344 53.757812 78.113281 C 52.605469 78.527344 51.300781 78.816406 50.113281 78.648438 C 49.34375 79.289062 48.414062 79.746094 47.644531 80.394531 C 46.5 81.351562 46.453125 82.402344 47.101562 83.640625 C 49.417969 83.015625 51.707031 82.28125 53.953125 81.390625 C 54.042969 81.355469 54.128906 81.316406 54.21875 81.28125 C 54.082031 81.132812 53.972656 80.960938 53.898438 80.777344 C 53.640625 80.117188 53.84375 79.363281 54.105469 78.714844 Z M 4.15625 88.761719 C 4.832031 89.550781 5.902344 89.921875 6.84375 90.292969 C 6.695312 90.09375 6.578125 89.863281 6.527344 89.703125 C 6.21875 88.757812 5.753906 88.21875 5.097656 87.457031 C 4.902344 87.230469 5.167969 86.9375 5.410156 87.113281 C 6.074219 87.601562 6.898438 88.105469 7.355469 88.816406 C 8.089844 89.957031 7.914062 90.265625 9.199219 90.335938 C 11.511719 90.460938 14.800781 89.703125 17.113281 89.734375 C 19.613281 89.761719 22.074219 89.734375 24.5625 90.007812 C 27.316406 90.304688 30.007812 90.980469 32.75 91.332031 C 37.910156 91.996094 43.25 91.332031 48.316406 90.304688 C 53.269531 89.304688 58.140625 87.769531 62.683594 85.539062 C 67.777344 83.042969 72.304688 79.527344 76.511719 75.753906 C 80.113281 72.523438 83.382812 68.898438 87.078125 65.78125 C 92.859375 60.910156 100.371094 57.261719 104.378906 50.59375 C 105.816406 48.203125 106.121094 45.5625 105.023438 42.980469 C 104.988281 42.898438 105.003906 42.820312 105.046875 42.757812 C 103.433594 42.203125 101.917969 41.421875 100.304688 40.832031 C 97.605469 39.839844 94.558594 39.835938 91.71875 39.882812 C 87.136719 39.960938 82.671875 40.910156 78.242188 41.992188 C 78.09375 42.027344 77.945312 42.066406 77.800781 42.097656 C 76.339844 42.457031 74.90625 42.933594 73.429688 43.183594 C 63.269531 44.894531 54.597656 44.808594 45.234375 49.746094 C 43.289062 50.773438 40.28125 52.121094 38.546875 53.476562 C 36.6875 54.929688 35.433594 56.84375 33.605469 58.304688 C 29.785156 61.355469 24.222656 63.648438 20.285156 66.539062 C 18.335938 67.972656 17.1875 69.015625 15.652344 70.867188 C 13.980469 72.882812 11.949219 75.238281 10.511719 77.429688 C 9.121094 79.550781 6.953125 84.023438 4.589844 85.285156 C 4.695312 85.367188 5.953125 85.402344 5.984375 85.546875 C 6.0625 85.539062 6.144531 85.542969 6.222656 85.539062 C 8.34375 85.171875 10.070312 83.042969 11.472656 81.5625 C 13.328125 79.605469 15.128906 78.441406 16.890625 76.398438 C 20.082031 72.699219 22.722656 68.566406 27.144531 66.308594 C 29.109375 65.308594 31.464844 64.824219 33.5625 64.195312 C 36.207031 63.398438 38.40625 61.644531 40.207031 59.6875 C 43.304688 56.320312 47.019531 53.585938 51.140625 51.710938 C 55.515625 49.722656 60.546875 47.746094 65.261719 46.914062 C 67.632812 46.496094 70.03125 46.226562 72.425781 45.992188 C 74.914062 45.75 77.664062 45.96875 79.964844 44.894531 C 83.972656 43.023438 88.824219 42.992188 93.148438 42.601562 C 96.265625 42.316406 100.421875 41.359375 103.335938 42.949219 C 103.625 43.109375 103.53125 43.460938 103.296875 43.566406 C 106.800781 46.398438 97.832031 52.75 96.140625 54.042969 C 93.789062 55.84375 91.339844 57.511719 88.941406 59.253906 C 85.382812 61.847656 82.113281 64.886719 78.679688 67.648438 C 70.359375 74.339844 62.574219 79.140625 52.4375 82.671875 C 41.65625 86.421875 28.851562 88.140625 17.503906 87.789062 C 13.097656 87.652344 8.675781 86.125 4.167969 86.75 C 3.554688 87.179688 3.359375 87.839844 4.15625 88.761719 Z M 14.6875 93.214844 C 15.839844 93.75 17.011719 94.234375 18.207031 94.675781 C 19.675781 94.832031 21.167969 95.246094 22.554688 95.511719 C 25.402344 96.066406 28.253906 96.4375 31.15625 96.363281 C 37.054688 96.214844 43.058594 95.277344 48.949219 95.664062 C 49.109375 95.679688 49.117188 95.886719 48.960938 95.910156 C 42.933594 96.871094 36.566406 97.007812 30.46875 97.226562 C 28.84375 97.285156 23.472656 96.753906 21.859375 96.527344 C 23.210938 96.855469 29.1875 98.285156 30.539062 98.546875 C 40.6875 100.492188 50.476562 99.75 60.410156 96.964844 C 70.457031 94.148438 80.605469 87.828125 88.066406 80.511719 C 92.300781 76.359375 94.824219 71.734375 98.140625 66.839844 C 101.410156 62.007812 105.367188 57.316406 107.660156 51.917969 C 108.695312 49.480469 108.808594 46.914062 108.410156 44.335938 C 108.074219 44.175781 107.757812 43.976562 107.457031 43.746094 C 107.4375 43.734375 107.417969 43.71875 107.402344 43.703125 C 107.117188 43.488281 106.847656 43.253906 106.585938 43.011719 C 106.527344 43.101562 106.421875 43.160156 106.292969 43.128906 C 106.070312 43.074219 105.847656 43.011719 105.625 42.945312 C 108.429688 49.109375 102.527344 54.652344 98.222656 58.265625 C 95.269531 60.742188 92.09375 62.941406 89.066406 65.332031 C 85.363281 68.257812 82.277344 71.992188 78.871094 75.25 C 71.363281 82.429688 62.933594 87.773438 52.871094 90.476562 C 48.085938 91.761719 43.125 92.566406 38.175781 92.734375 C 33.226562 92.902344 28.609375 91.453125 23.734375 90.886719 C 19.535156 90.402344 15.503906 91.117188 11.328125 91.253906 C 10.632812 91.277344 9.945312 91.261719 9.265625 91.179688 C 11.089844 91.8125 12.925781 92.402344 14.6875 93.214844 Z M 116.140625 31.238281 C 116.855469 28.816406 117.230469 26.316406 117.382812 23.800781 C 117.441406 22.867188 117.824219 20.945312 116.699219 20.617188 C 115.402344 20.234375 114.898438 21.660156 114.621094 22.621094 C 114.15625 24.25 114.234375 25.992188 113.761719 27.613281 C 113.183594 29.578125 112.613281 31.546875 111.890625 33.46875 C 110.859375 36.21875 109.085938 40.3125 105.847656 40.800781 C 106.125 41.082031 106.378906 41.386719 106.605469 41.613281 C 106.992188 41.996094 107.390625 42.359375 107.796875 42.710938 C 112.425781 40.523438 114.730469 36.015625 116.140625 31.238281 Z M 104.226562 40.574219 C 102.21875 39.679688 100.507812 38.574219 98.25 38.183594 C 95.703125 37.746094 93.042969 38.03125 90.507812 38.40625 C 88.144531 38.753906 85.8125 39.234375 83.566406 40.03125 C 86.5 39.523438 89.445312 39.132812 92.414062 39.035156 C 94.949219 38.953125 97.507812 38.996094 99.960938 39.707031 C 101.917969 40.28125 103.78125 41.257812 105.625 42.164062 C 105.066406 41.695312 104.460938 41.152344 104.226562 40.574219 Z M 2.460938 86.921875 C 2.59375 86.300781 3.027344 85.898438 3.558594 85.625 C 3.046875 85.5625 3.023438 84.894531 3.542969 84.804688 C 5.5625 84.445312 6.5625 82.703125 7.351562 81 C 8.28125 78.992188 9.546875 77.144531 10.820312 75.347656 C 13.414062 71.683594 16.421875 67.71875 20.082031 65.074219 C 24.160156 62.132812 29.273438 61.050781 33.078125 57.664062 C 34.710938 56.210938 36.050781 54.511719 37.800781 53.148438 C 39.855469 51.539062 42.140625 50.234375 44.476562 49.082031 C 54.097656 44.34375 64.96875 43.777344 75.316406 41.664062 C 76.484375 41.425781 77.660156 41.179688 78.832031 40.941406 C 80.34375 40.445312 81.851562 39.925781 83.40625 39.535156 C 86.199219 38.832031 88.929688 38.128906 91.796875 37.761719 C 94.242188 37.445312 96.730469 37.398438 99.179688 37.753906 C 100.929688 38.007812 103.023438 38.523438 104.375 39.789062 C 104.46875 39.691406 104.589844 39.628906 104.746094 39.632812 C 109.828125 39.699219 111.433594 31.382812 112.429688 27.617188 C 113 25.464844 112.753906 18.597656 116.566406 19.652344 C 118.496094 20.1875 117.777344 22.691406 117.726562 24.222656 C 117.632812 26.953125 117.222656 29.703125 116.578125 32.355469 C 115.570312 36.542969 113.242188 41.957031 108.839844 43.535156 C 109.0625 43.703125 109.273438 43.882812 109.507812 44.042969 C 109.730469 44.195312 109.695312 44.496094 109.5 44.597656 C 111.277344 49.332031 108.511719 54.398438 105.921875 58.316406 C 104.449219 60.542969 102.71875 62.605469 101.113281 64.738281 C 99.328125 67.113281 97.6875 69.605469 95.972656 72.035156 C 92.730469 76.644531 89.242188 81.164062 84.996094 84.890625 C 81.269531 88.160156 77.144531 90.914062 72.75 93.195312 C 55.25 102.28125 33.820312 102.855469 15.710938 95.226562 C 13.398438 94.253906 11.148438 93.238281 8.777344 92.398438 C 7 91.765625 5.078125 91.191406 3.613281 89.960938 C 2.734375 89.226562 2.210938 88.050781 2.460938 86.921875 " fill-opacity="1" fill-rule="nonzero"/></g><g fill="#ffffff" fill-opacity="1"><g transform="translate(94.146924, 94.089532)"><g><path d="M 1.375 -7.3125 L 0.1875 -7.171875 L 0.15625 -7.390625 L 2.609375 -7.71875 L 3.5 -7.71875 L 3.5 -0.203125 L 4.34375 -0.203125 L 4.34375 0 L 0.234375 0 L 0.234375 -0.203125 L 1.375 -0.203125 Z M 1.375 -7.3125 "/></g></g></g><g fill="#ffffff" fill-opacity="1"><g transform="translate(98.763542, 94.089532)"><g><path d="M 1.375 -7.3125 L 0.1875 -7.171875 L 0.15625 -7.390625 L 2.609375 -7.71875 L 3.5 -7.71875 L 3.5 -0.203125 L 4.34375 -0.203125 L 4.34375 0 L 0.234375 0 L 0.234375 -0.203125 L 1.375 -0.203125 Z M 1.375 -7.3125 "/></g></g></g><g fill="#ffffff" fill-opacity="1"><g transform="translate(103.38016, 94.089532)"><g><path d="M 1.375 -7.3125 L 0.1875 -7.171875 L 0.15625 -7.390625 L 2.609375 -7.71875 L 3.5 -7.71875 L 3.5 -0.203125 L 4.34375 -0.203125 L 4.34375 0 L 0.234375 0 L 0.234375 -0.203125 L 1.375 -0.203125 Z M 1.375 -7.3125 "/></g></g></g></svg>