<svg id="Layer_1" data-name="Layer 1" xmlns="http://www.w3.org/2000/svg" viewBox="0 0 87.9 130.74"><defs><style>.cls-1{fill:#fff;}.cls-2{fill:#55423f;}</style></defs><path class="cls-1" d="M69.28,136.87a37,37,0,0,1-28.5-13.21H38.39c-6.88,0-12.47-5.28-12.47-11.78V31.12c0-6.5,5.59-11.78,12.47-11.78h2.39a37.35,37.35,0,0,1,57,0h3.57c6.88,0,12.47,5.28,12.47,11.78v80.76c0,6.5-5.59,11.78-12.47,11.78H97.78A37,37,0,0,1,69.28,136.87Z" transform="translate(-25.92 -6.13)"/><path class="cls-2" d="M45,111.79c-.25.74-.48,1.46-1.46,1.46-.72,0-1.14-.65-1.08-1.45l0-.21a19.34,19.34,0,0,0,.35-2.21c.11-1.48-.28-2.2-1.14-2.2a2.18,2.18,0,0,0-1.57.83,4.44,4.44,0,0,1,0,.73,13.07,13.07,0,0,1-.36,2.09c-.42,1.76-.73,2.42-1.29,2.42-.36,0-.51-.29-.47-.81a13.14,13.14,0,0,1,.47-2.06A7.14,7.14,0,0,1,39.68,108a2,2,0,0,0-.49-.71.22.22,0,0,1-.07-.09.23.23,0,0,1,.15-.28.25.25,0,0,1,.24,0,2.35,2.35,0,0,1,.5.66l.06-.07a2.49,2.49,0,0,1,1.7-.75c1.15,0,1.68.92,1.56,2.62a22,22,0,0,1-.36,2.26.88.88,0,0,0,0,.16c-.05.6.23,1,.66,1s.69-.27,1-1.14c0-.13.09-.17.21-.17S45.09,111.65,45,111.79Zm-5.3-3.19a7.65,7.65,0,0,0-.79,1.86,13.32,13.32,0,0,0-.46,2c0,.28,0,.39.06.39.2,0,.47-.6.82-2.07a13.87,13.87,0,0,0,.36-2S39.74,108.65,39.74,108.6Z" transform="translate(-25.92 -6.13)"/><path class="cls-2" d="M48.19,112.4s0,0,0,.08a1.59,1.59,0,0,1-1.2.79,1.19,1.19,0,0,1-.4-.08.69.69,0,0,1-.39-.28,1.16,1.16,0,0,1-.82.34.84.84,0,0,1-.83-.92,1.75,1.75,0,0,1,.05-.46c.31-1.05.9-1.79,1.48-1.79a.68.68,0,0,1,.47.19.18.18,0,0,1,.05.07.24.24,0,0,1,.17-.07.21.21,0,0,1,.22.21v0l-.37,1.64a.13.13,0,0,1,0,.06,2.16,2.16,0,0,0,0,.29.25.25,0,0,0,.19.27.85.85,0,0,0,.26,0c.29,0,.52-.21.82-.61a.22.22,0,0,1,.19-.09A.21.21,0,0,1,48.19,112.4Zm-2-.45.15-.58.14-.46c0-.18,0-.41-.4-.41s-.8.63-1,1.47a1.42,1.42,0,0,0,0,.36c0,.33.11.49.32.49S46,112.47,46.15,112Z" transform="translate(-25.92 -6.13)"/><path class="cls-2" d="M48.64,111.06a.21.21,0,0,1,.22-.21h2.46a.21.21,0,0,1,.22.21.22.22,0,0,1-.22.21H48.86A.22.22,0,0,1,48.64,111.06Z" transform="translate(-25.92 -6.13)"/><path class="cls-2" d="M59,111.79c-.25.74-.48,1.46-1.46,1.46-.72,0-1.14-.65-1.08-1.45l0-.21a19.34,19.34,0,0,0,.35-2.21c.11-1.48-.28-2.2-1.14-2.2a2.18,2.18,0,0,0-1.57.83,3.51,3.51,0,0,1,0,.73,14.34,14.34,0,0,1-.37,2.09c-.42,1.76-.73,2.42-1.29,2.42-.35,0-.51-.29-.47-.81a13.14,13.14,0,0,1,.47-2.06A7.14,7.14,0,0,1,53.62,108a2,2,0,0,0-.49-.71.15.15,0,0,1-.06-.09.21.21,0,0,1,.14-.28.25.25,0,0,1,.24,0,2.35,2.35,0,0,1,.5.66l.06-.07a2.51,2.51,0,0,1,1.71-.75c1.14,0,1.67.92,1.55,2.62a19.55,19.55,0,0,1-.36,2.26.88.88,0,0,0,0,.16c0,.6.23,1,.66,1s.7-.27,1-1.14c.05-.13.09-.17.21-.17S59,111.65,59,111.79Zm-5.3-3.19a7.65,7.65,0,0,0-.79,1.86,13.32,13.32,0,0,0-.46,2c0,.28,0,.39.06.39.2,0,.47-.6.82-2.07a13.87,13.87,0,0,0,.36-2S53.68,108.65,53.68,108.6Z" transform="translate(-25.92 -6.13)"/><path class="cls-2" d="M61.83,111.77v.06A6.27,6.27,0,0,1,60,114.39l-.15.55c0,.15-.06.28-.08.39a3.56,3.56,0,0,1-.12.42c-.14.64-.54,1.1-1,1.1s-.55-.28-.55-.72c0-.63.66-1.23,1.33-1.84l.13-.12c.08-.33.17-.71.28-1.14a1.08,1.08,0,0,1-.63.21c-.47,0-.76-.35-.76-.91a1.75,1.75,0,0,1,.05-.46c.31-1.05.9-1.79,1.48-1.79a.68.68,0,0,1,.47.19h0a.22.22,0,0,1,.19-.12.22.22,0,0,1,.23.2s0,0,0,.06a2.6,2.6,0,0,1-.07.31v0l-.66,2.85a4.71,4.71,0,0,0,1.25-1.88.21.21,0,0,1,.21-.16A.22.22,0,0,1,61.83,111.77Zm-2.48,3.16c-.48.45-.81.83-.81,1.2s0,.3.1.3.43-.33.54-.78c0-.11.06-.25.1-.41Zm1-4.13a.41.41,0,0,0-.37-.3c-.33,0-.8.63-1,1.47a1.42,1.42,0,0,0,0,.36c0,.33.11.49.32.49s.68-.35.88-.87C60.25,111.22,60.21,111.42,60.34,110.8Z" transform="translate(-25.92 -6.13)"/><path class="cls-2" d="M63.25,112.92a1.48,1.48,0,0,1-.87.32,1,1,0,0,1-1.06-1,4.76,4.76,0,0,1,.6-1.8.24.24,0,0,1,.2-.13.21.21,0,0,1,.22.21.11.11,0,0,1,0,.08,4.46,4.46,0,0,0-.55,1.64.58.58,0,0,0,.62.62,1.08,1.08,0,0,0,.71-.33,2.71,2.71,0,0,1,0-.29,4,4,0,0,1,.13-.9c.22-.79.36-1,.69-1s.38.17.38.44a3.29,3.29,0,0,1-.11.72,2.7,2.7,0,0,1-.59,1.17.37.37,0,0,0,.39.25c.3,0,.87-.45,1.09-1.14a.24.24,0,0,1,.22-.17.21.21,0,0,1,.21.26A1.93,1.93,0,0,1,64,113.27.81.81,0,0,1,63.25,112.92Zm.48-1.57c.06-.25.08-.43.11-.55a4,4,0,0,0-.2.6,4.3,4.3,0,0,0-.09.47A2.47,2.47,0,0,0,63.73,111.35Z" transform="translate(-25.92 -6.13)"/><path class="cls-2" d="M68.64,112.4a.3.3,0,0,1,0,.08,1.59,1.59,0,0,1-1.2.79,1.23,1.23,0,0,1-.4-.08.69.69,0,0,1-.39-.28,1.16,1.16,0,0,1-.82.34.84.84,0,0,1-.83-.92,1.75,1.75,0,0,1,.05-.46c.32-1.05.9-1.79,1.48-1.79a.68.68,0,0,1,.47.19.18.18,0,0,1,.05.07.24.24,0,0,1,.17-.07.21.21,0,0,1,.22.21v0L67,112.17a.13.13,0,0,1,0,.06,2.16,2.16,0,0,0,0,.29.25.25,0,0,0,.19.27.91.91,0,0,0,.26,0c.29,0,.52-.21.82-.61a.22.22,0,0,1,.19-.09A.21.21,0,0,1,68.64,112.4Zm-2-.45.15-.58.14-.46c0-.18,0-.41-.4-.41s-.8.63-1,1.47a1.42,1.42,0,0,0,0,.36c0,.33.11.49.33.49S66.4,112.47,66.6,112Z" transform="translate(-25.92 -6.13)"/><path class="cls-2" d="M75.65,111.8a2.19,2.19,0,0,1-2.28,1.46,2.24,2.24,0,0,1-.57-.08,2,2,0,0,1-1.26-2.1,5.54,5.54,0,0,1,.28-1.64,7.69,7.69,0,0,1,.28-.72l0-.07-.17-.11c-.63-.42-.83-.94-.5-1.39a.5.5,0,0,1,.72-.14.65.65,0,0,1,.3.55.18.18,0,0,1,0,.1.23.23,0,0,1-.31.06.21.21,0,0,1-.09-.2.26.26,0,0,0-.11-.16s-.06,0-.11,0c-.17.23,0,.52.39.81l.12.07a3.77,3.77,0,0,1,1.73-1.62,1.57,1.57,0,0,1,.53-.11.81.81,0,0,1,.83.86,1.35,1.35,0,0,1-.08.43A2,2,0,0,1,73.27,109h-.22a3.92,3.92,0,0,1-.52-.13,5,5,0,0,0-.28.71,4.85,4.85,0,0,0-.26,1.52c0,.91.34,1.51,1,1.7a1.44,1.44,0,0,0,.43.06,1.85,1.85,0,0,0,1.85-1.14c0-.13.09-.17.21-.17S75.7,111.67,75.65,111.8Zm-2.92-3.33a3.18,3.18,0,0,0,.37.09h.17a1.62,1.62,0,0,0,1.66-.86.91.91,0,0,0,0-.31c0-.29-.14-.44-.38-.44a.94.94,0,0,0-.36.08A3.31,3.31,0,0,0,72.73,108.47Z" transform="translate(-25.92 -6.13)"/><path class="cls-2" d="M75.15,112.26a2.32,2.32,0,0,1,.09-.62,2.66,2.66,0,0,1,.63-1.15.2.2,0,0,1,.16-.07.24.24,0,0,1,.22.14.63.63,0,0,1,.51-.29c.42,0,.77.54.77,1.15a1.24,1.24,0,0,1,0,.33,2.41,2.41,0,0,1-.23.6.58.58,0,0,0,.33.1,1,1,0,0,0,.9-.73.22.22,0,0,1,.21-.15.22.22,0,0,1,.21.29,1.44,1.44,0,0,1-1.32,1,1.08,1.08,0,0,1-.57-.17,1.38,1.38,0,0,1-1,.58C75.46,113.28,75.15,112.89,75.15,112.26Zm1.54.16a2.41,2.41,0,0,1-.54-1.55v-.05a2.48,2.48,0,0,0-.48.93,2.05,2.05,0,0,0-.08.51c0,.4.14.6.4.6A1,1,0,0,0,76.69,112.42Zm.37-.77a.8.8,0,0,0,0-.23c0-.35-.2-.73-.33-.73a.23.23,0,0,0-.17.18,2.14,2.14,0,0,0,.34,1.15A2.32,2.32,0,0,0,77.06,111.65Z" transform="translate(-25.92 -6.13)"/><path class="cls-2" d="M78.48,111.94a1.27,1.27,0,0,1,0-.28c.19-.88.78-1.62,1.38-1.62a.6.6,0,0,1,.61.63,1.14,1.14,0,0,1-.11.46c0,.08-.1.14-.2.14A.22.22,0,0,1,80,111a.15.15,0,0,1,0-.07.65.65,0,0,0,.08-.28c0-.16-.06-.23-.18-.23-.35,0-.8.64-.94,1.29a1,1,0,0,0,0,.19.93.93,0,0,0,.94.91,1.53,1.53,0,0,0,1.3-1.14c0-.13.08-.17.21-.17a.21.21,0,0,1,.22.27,1.81,1.81,0,0,1-1.7,1.46A1.35,1.35,0,0,1,78.48,111.94Z" transform="translate(-25.92 -6.13)"/><path class="cls-2" d="M81.08,112.26a2.32,2.32,0,0,1,.09-.62,2.77,2.77,0,0,1,.63-1.15.21.21,0,0,1,.17-.07.23.23,0,0,1,.21.14.63.63,0,0,1,.51-.29c.42,0,.78.54.78,1.15a1.86,1.86,0,0,1,0,.33,2.89,2.89,0,0,1-.24.6.6.6,0,0,0,.33.1,1,1,0,0,0,.9-.73.22.22,0,0,1,.21-.15.22.22,0,0,1,.21.29,1.42,1.42,0,0,1-1.32,1,1.08,1.08,0,0,1-.57-.17,1.35,1.35,0,0,1-1,.58C81.4,113.28,81.08,112.89,81.08,112.26Zm1.55.16a2.36,2.36,0,0,1-.55-1.55v-.05a2.48,2.48,0,0,0-.48.93,2.05,2.05,0,0,0-.08.51c0,.4.14.6.4.6A1,1,0,0,0,82.63,112.42Zm.36-.77a.8.8,0,0,0,0-.23c0-.35-.19-.73-.33-.73a.23.23,0,0,0-.17.18,2.14,2.14,0,0,0,.34,1.15A1.63,1.63,0,0,0,83,111.65Z" transform="translate(-25.92 -6.13)"/><path class="cls-2" d="M88,112.4a.3.3,0,0,1,0,.08,1.56,1.56,0,0,1-1.2.79,1.23,1.23,0,0,1-.4-.08.69.69,0,0,1-.39-.28,1.14,1.14,0,0,1-.82.34.84.84,0,0,1-.83-.92,1.42,1.42,0,0,1,.06-.46c.31-1.05.9-1.79,1.47-1.79a.68.68,0,0,1,.47.19s.05,0,.06.07a.23.23,0,0,1,.39.14l0,0-.36,1.64s0,0,0,.06a2.16,2.16,0,0,0,0,.29.26.26,0,0,0,.2.27.79.79,0,0,0,.25,0c.29,0,.52-.21.82-.61a.23.23,0,0,1,.19-.09A.21.21,0,0,1,88,112.4ZM86,112l.14-.58.14-.46c0-.18,0-.41-.4-.41s-.8.63-1,1.47a2.1,2.1,0,0,0,0,.36c0,.33.11.49.32.49S85.77,112.47,86,112Z" transform="translate(-25.92 -6.13)"/><path class="cls-2" d="M91.68,113s0,0,0,0c.21-.76.38-1.42.54-2a38.43,38.43,0,0,1,1.16-4l-.77-.12a11.78,11.78,0,0,0-2.32-.26c-.8,0-1.4.38-1.4.92a.83.83,0,0,0,.8.87c.12,0,.2,0,.21-.08a.23.23,0,0,1,.22-.15.21.21,0,0,1,.22.21s0,0,0,.07a.64.64,0,0,1-.64.37,1.27,1.27,0,0,1-1.25-1.29c0-.79.8-1.34,1.85-1.34a11.88,11.88,0,0,1,2.42.27,7.68,7.68,0,0,0,.88.12,1.37,1.37,0,0,1,1-.74.79.79,0,0,1,.48.18.5.5,0,0,1,.18.35c0,.4-.58.64-1.41.64A28.65,28.65,0,0,0,92.67,111c-.16.58-.34,1.26-.55,2a.21.21,0,0,1-.23.16A.22.22,0,0,1,91.68,113Zm2.93-6.81c-.13,0-.3.12-.46.31C94.76,106.44,94.92,106.25,94.61,106.19Z" transform="translate(-25.92 -6.13)"/><path class="cls-2" d="M95.08,112.55a1.56,1.56,0,0,1,0-.36l.19-.83a1.76,1.76,0,0,0,.06-.38c0-.31-.14-.49-.35-.49-.38,0-.85.54-1,1.34s-.26,1.07-.32,1.26a.21.21,0,0,1-.21.16.21.21,0,0,1-.22-.21V113c0-.06.15-.55.41-1.63.11-.48.51-2.21.79-3.32.15-.64.54-1.1,1-1.1s.55.29.55.7a2.94,2.94,0,0,1-.07.53,4.75,4.75,0,0,1-.84,1.4c-.42.54-.31.42-.46.6a1,1,0,0,1,.39-.09.82.82,0,0,1,.79.92,1.88,1.88,0,0,1-.06.46l-.2.82a1.17,1.17,0,0,0,0,.29.24.24,0,0,0,.28.28c.48,0,.8-.93.87-1.14a.24.24,0,0,1,.29-.18c.17.06.19.12.13.29-.3.89-.84,1.45-1.28,1.45A.68.68,0,0,1,95.08,112.55Zm-.34-3.25a3.68,3.68,0,0,0,.76-1.23,1.76,1.76,0,0,0,.06-.42c0-.14,0-.3-.12-.3s-.41.35-.52.79l-.32,1.35Z" transform="translate(-25.92 -6.13)"/><path class="cls-2" d="M98.15,112.85a1.2,1.2,0,0,1-.83.39c-.47,0-.76-.34-.76-.94a1.39,1.39,0,0,1,.06-.43c.3-1,.89-1.79,1.46-1.79a.69.69,0,0,1,.48.19s0,0,.06.07a.22.22,0,0,1,.16-.07.21.21,0,0,1,.22.26l-.42,1.76a.85.85,0,0,0,0,.25c0,.22.09.31.3.31a.81.81,0,0,0,.71-.49,4.38,4.38,0,0,0,.26-.65c0-.12.1-.14.21-.14s.26.11.22.23a6.08,6.08,0,0,1-.29.75,1.3,1.3,0,0,1-1.1.72A.7.7,0,0,1,98.15,112.85Zm.06-.9.14-.58.13-.54c0-.17-.1-.33-.37-.33s-.81.63-1.07,1.47a2.07,2.07,0,0,0,0,.35c0,.35.11.5.32.5S98,112.47,98.21,112Z" transform="translate(-25.92 -6.13)"/><path class="cls-2" d="M99.55,112.54a2.35,2.35,0,0,1,0-.34l.12-.63c.13-.79.25-1.49.86-1.49a.35.35,0,0,1,.4.38,4.75,4.75,0,0,1-1,2v0c0,.23.12.3.32.3.42,0,.53-.21.76-.4a.2.2,0,0,1,.14-.06.22.22,0,0,1,.22.21.24.24,0,0,1-.09.17,1.33,1.33,0,0,1-1.11.5A.66.66,0,0,1,99.55,112.54Zm1-2c-.15,0-.22.23-.34.87A2.6,2.6,0,0,0,100.52,110.51Zm0-1.39a.31.31,0,0,1,.61,0,.31.31,0,0,1-.3.3A.3.3,0,0,1,100.51,109.12Z" transform="translate(-25.92 -6.13)"/><path class="cls-2" d="M98.55,32.07q0,3.27-3.82,5.73T83.82,40.27a15.86,15.86,0,0,1-8.21-1.89q-3.17-1.91-3.17-4.9a5,5,0,0,1,1-3.26A3.41,3.41,0,0,1,76.26,29a2.75,2.75,0,0,1,2.19.79,2.59,2.59,0,0,1,.7,1.76,2.34,2.34,0,0,1-.79,1.85,2,2,0,0,1-1.82.53,1.9,1.9,0,0,0,.65,1.41,5.13,5.13,0,0,0,1.68,1,12.92,12.92,0,0,0,2.29.62,14.53,14.53,0,0,0,2.38.22,12.67,12.67,0,0,0,5.78-1.11,8.15,8.15,0,0,0,3.13-2.55,5.88,5.88,0,0,0,1.07-2.91,4.72,4.72,0,0,0-.28-2.25,4.83,4.83,0,0,1,3.82.44A3.58,3.58,0,0,1,98.55,32.07Z" transform="translate(-25.92 -6.13)"/><path class="cls-2" d="M86.49,33.34c0,.47-.25.71-.75.71H82.85c-.5,0-.75-.21-.75-.62l-.18-8.27,3.5-2.6a.76.76,0,0,1,1.23.57Z" transform="translate(-25.92 -6.13)"/><path class="cls-2" d="M89.9,54.56v-6.9a4.79,4.79,0,0,0-2.1-4.19A8.86,8.86,0,0,0,82.62,42a7.75,7.75,0,0,0-5.5,1.76,5.46,5.46,0,0,0-1.86,4.06,2.85,2.85,0,0,0,1.07,2.47,3.51,3.51,0,0,0,2.1.79,3.36,3.36,0,0,0,2-.62,2,2,0,0,0,.89-1.76,2.21,2.21,0,0,0-.93-1.9,1.91,1.91,0,0,0-2-.22,5.26,5.26,0,0,1,1.21-1.36,3.25,3.25,0,0,1,1.86-.4,3,3,0,0,1,1.92.62,2.12,2.12,0,0,1,.79,1.76v7.52a24.67,24.67,0,0,1,3.53-.27C88.5,54.47,89.21,54.51,89.9,54.56Z" transform="translate(-25.92 -6.13)"/><path class="cls-2" d="M84.4,60.4a2.31,2.31,0,0,0-.19.14V84.59a1,1,0,0,1-.65,1c-.44.18-.87,0-1.31-.62a52.81,52.81,0,0,1-2.53-5.45,11.94,11.94,0,0,0-2.65-3.67,5.51,5.51,0,0,0-3.87-1.59,4.2,4.2,0,0,0-2.47.75,2.36,2.36,0,0,0-1,2.25,2.57,2.57,0,0,0,.23,1.1,4.82,4.82,0,0,0,.52.84,1.93,1.93,0,0,1,.79-.71,2.66,2.66,0,0,1,1.35-.35,3.77,3.77,0,0,1,2.53,1,6.44,6.44,0,0,1,1.55,2.26c.51,1,2,4.4,2.31,5a10.6,10.6,0,0,0,1.31,1.77,7.44,7.44,0,0,0,1.87,1.5,5,5,0,0,0,2.56.61,5.79,5.79,0,0,0,3.78-1.1c.9-.73,1.35-2,1.35-3.92V59.88a6.18,6.18,0,0,0-2.06-.33A6.55,6.55,0,0,0,84.4,60.4Z" transform="translate(-25.92 -6.13)"/><path class="cls-2" d="M52.9,38.26q-3.23,1.71-3.22,4.8a3,3,0,0,0,.7,1.94,2.92,2.92,0,0,0,2,1.06,3.39,3.39,0,0,0,2.75-.57c.72-.56,1.11-1,1.17-1.28a.89.89,0,0,1-.79-.27,1.28,1.28,0,0,1-.42-1,3.1,3.1,0,0,1,1.5-2.68V37A13.3,13.3,0,0,0,52.9,38.26Z" transform="translate(-25.92 -6.13)"/><path class="cls-2" d="M68,71.78,72.44,69V44.82A7.53,7.53,0,0,0,69.64,39a9.73,9.73,0,0,0-4.59-2.1v3.23l.16.1a4.15,4.15,0,0,1,1.63,3.53V71.18A.76.76,0,0,0,68,71.78Z" transform="translate(-25.92 -6.13)"/><path class="cls-2" d="M99.21,96.23a5.39,5.39,0,0,1-.88,3.13,7,7,0,0,1-2.24,2.07,9.81,9.81,0,0,1-3,1.14,16,16,0,0,1-3.36.36,9.66,9.66,0,0,1-5.55-1.55,4.72,4.72,0,0,1-2.28-4.1A3.15,3.15,0,0,1,83,94.64a3.58,3.58,0,0,1,2.23-.88,2.91,2.91,0,0,1,1.92.66,2.34,2.34,0,0,1,.79,1.89A2,2,0,0,1,87,98.08a1.86,1.86,0,0,1-1.82.26,2.32,2.32,0,0,0,1.5,1.37,6.27,6.27,0,0,0,2.33.48,5.53,5.53,0,0,0,1.3-.17,6.18,6.18,0,0,0,1.5-.58,4.51,4.51,0,0,0,1.26-1A2.09,2.09,0,0,0,93.62,97V63A4.19,4.19,0,0,0,92,59.43a6.71,6.71,0,0,0-4.15-1.23,8,8,0,0,0-4.2,1.06,3.24,3.24,0,0,0-1.77,2.91,1.21,1.21,0,0,0,.42,1,.91.91,0,0,0,.79.26c-.06.3-.45.72-1.17,1.28a3.65,3.65,0,0,1-2.75.66,2.92,2.92,0,0,1-2-1.06,3,3,0,0,1-.7-1.94,5.28,5.28,0,0,1,3.21-4.8,17,17,0,0,1,8.07-1.72q5.88,0,8.68,2.42a7.51,7.51,0,0,1,2.79,5.87Z" transform="translate(-25.92 -6.13)"/><path class="cls-2" d="M69.87,86.2q0,3.7-1.82,5.29a5.89,5.89,0,0,1-4,1.59,8,8,0,0,1-2.19-.31,6.09,6.09,0,0,1-2-1,5.2,5.2,0,0,1-1.45-1.72,5.68,5.68,0,0,1-.56-2.65l.1-3.7c-3.67,1.76-3.53,8.18-7.45,11.59a8,8,0,0,1-2,1.28,5,5,0,0,1-1.78.31,2.9,2.9,0,0,1-1.91-.66,2.32,2.32,0,0,1-.79-1.9V54.91A2.25,2.25,0,0,0,43.21,53a3.09,3.09,0,0,0-1.87-.62,2.68,2.68,0,0,0-1.81.53,3.17,3.17,0,0,0-.89,1.24,2.06,2.06,0,0,1,2,.3,2.26,2.26,0,0,1,.79,1.81A2,2,0,0,1,40.6,58a3.16,3.16,0,0,1-2,.62,3.62,3.62,0,0,1-2.19-.79,2.86,2.86,0,0,1-1.08-2.47,5.52,5.52,0,0,1,1.82-4.06,6.91,6.91,0,0,1,5-1.76A9.22,9.22,0,0,1,47.55,51a4.85,4.85,0,0,1,2.1,4.27V90.74c0,.29.1.47.32.53a.84.84,0,0,0,.7-.18c2-1.53,1-7.26,7.36-10.62V29.21l4.41-2.79a.76.76,0,0,1,1.18.59V79.32A6.57,6.57,0,0,1,68,80.91Q69.87,82.5,69.87,86.2ZM67,86a4.69,4.69,0,0,0-.75-2.64,2.86,2.86,0,0,0-2.61-1.15v6.7a.88.88,0,0,0,.33.66,1.09,1.09,0,0,0,.79.31,1.77,1.77,0,0,0,1.73-1.19A6.76,6.76,0,0,0,67,86Z" transform="translate(-25.92 -6.13)"/><path class="cls-2" d="M69.28,136.87a37,37,0,0,1-28.5-13.21H38.39c-6.88,0-12.47-5.28-12.47-11.78V31.12c0-6.5,5.59-11.78,12.47-11.78h2.39a37.35,37.35,0,0,1,57,0h3.57c6.88,0,12.47,5.28,12.47,11.78v80.76c0,6.5-5.59,11.78-12.47,11.78H97.78A37,37,0,0,1,69.28,136.87Zm-30.89-115a9.58,9.58,0,0,0-9.82,9.28v80.76a9.58,9.58,0,0,0,9.82,9.28h3a1.33,1.33,0,0,1,1.06.5,34.58,34.58,0,0,0,53.56,0,1.33,1.33,0,0,1,1.06-.5h4.23a9.57,9.57,0,0,0,9.82-9.28V31.12a9.57,9.57,0,0,0-9.82-9.28H97.12a1.33,1.33,0,0,1-1.06-.5,34.58,34.58,0,0,0-53.56,0,1.33,1.33,0,0,1-1.06.5Z" transform="translate(-25.92 -6.13)"/><path class="cls-2" d="M69.28,132.86a32.36,32.36,0,0,1-26.34-13.21H38.39a8,8,0,0,1-8.23-7.77V31.12a8,8,0,0,1,8.23-7.77h4.55a32.87,32.87,0,0,1,52.68,0h5.73a8,8,0,0,1,8.23,7.77v80.76a8,8,0,0,1-8.23,7.77H95.62A32.34,32.34,0,0,1,69.28,132.86Zm-30.89-109a7.5,7.5,0,0,0-7.69,7.27v80.76a7.5,7.5,0,0,0,7.69,7.27h4.84l.07.11a32.31,32.31,0,0,0,52,0l.08-.11h6a7.5,7.5,0,0,0,7.7-7.27V31.12a7.5,7.5,0,0,0-7.7-7.27h-6l-.08-.11a32.31,32.31,0,0,0-52,0l-.07.11Z" transform="translate(-25.92 -6.13)"/></svg>